<mxfile host="app.diagrams.net" modified="2023-05-13T11:54:13.184Z" agent="Mozilla/5.0 (Windows NT 10.0; Win64; x64) AppleWebKit/537.36 (KHTML, like Gecko) Chrome/113.0.0.0 Safari/537.36" etag="tBciwL2nDe3o8bKUzvvb" version="21.3.0" type="device">
  <diagram name="PÃ¡gina-1" id="Qld5RyIpPWJtRFr0x4VX">
    <mxGraphModel dx="1173" dy="603" grid="1" gridSize="10" guides="1" tooltips="1" connect="1" arrows="1" fold="1" page="1" pageScale="1" pageWidth="1100" pageHeight="850" math="0" shadow="0">
      <root>
        <mxCell id="0" />
        <mxCell id="1" parent="0" />
        <mxCell id="B4nHwGPNu4P-VPpUnSVg-102" value="" style="edgeStyle=orthogonalEdgeStyle;rounded=0;orthogonalLoop=1;jettySize=auto;html=1;" edge="1" parent="1" source="B4nHwGPNu4P-VPpUnSVg-36" target="B4nHwGPNu4P-VPpUnSVg-101">
          <mxGeometry relative="1" as="geometry" />
        </mxCell>
        <mxCell id="B4nHwGPNu4P-VPpUnSVg-104" style="edgeStyle=orthogonalEdgeStyle;rounded=0;orthogonalLoop=1;jettySize=auto;html=1;entryX=1;entryY=0.75;entryDx=0;entryDy=0;exitX=0;exitY=0.75;exitDx=0;exitDy=0;" edge="1" parent="1" source="B4nHwGPNu4P-VPpUnSVg-36" target="B4nHwGPNu4P-VPpUnSVg-38">
          <mxGeometry relative="1" as="geometry" />
        </mxCell>
        <mxCell id="B4nHwGPNu4P-VPpUnSVg-36" value="LOGIN" style="rounded=0;whiteSpace=wrap;html=1;fillColor=#f8cecc;strokeColor=none;fontColor=#b71515;" vertex="1" parent="1">
          <mxGeometry x="590" y="212" width="90" height="40" as="geometry" />
        </mxCell>
        <mxCell id="B4nHwGPNu4P-VPpUnSVg-103" style="edgeStyle=orthogonalEdgeStyle;rounded=0;orthogonalLoop=1;jettySize=auto;html=1;entryX=0;entryY=0.25;entryDx=0;entryDy=0;exitX=1;exitY=0.25;exitDx=0;exitDy=0;" edge="1" parent="1" source="B4nHwGPNu4P-VPpUnSVg-38" target="B4nHwGPNu4P-VPpUnSVg-36">
          <mxGeometry relative="1" as="geometry" />
        </mxCell>
        <mxCell id="B4nHwGPNu4P-VPpUnSVg-38" value="REGISTRO&lt;br&gt;USUARIO" style="rounded=0;whiteSpace=wrap;html=1;fillColor=#f8cecc;strokeColor=none;fontColor=#b71515;" vertex="1" parent="1">
          <mxGeometry x="370" y="212" width="110" height="40" as="geometry" />
        </mxCell>
        <mxCell id="B4nHwGPNu4P-VPpUnSVg-81" style="edgeStyle=orthogonalEdgeStyle;rounded=0;orthogonalLoop=1;jettySize=auto;html=1;entryX=0;entryY=0.5;entryDx=0;entryDy=0;endArrow=none;endFill=0;" edge="1" parent="1" source="B4nHwGPNu4P-VPpUnSVg-40" target="B4nHwGPNu4P-VPpUnSVg-56">
          <mxGeometry relative="1" as="geometry">
            <Array as="points">
              <mxPoint x="110" y="450" />
              <mxPoint x="110" y="525" />
            </Array>
          </mxGeometry>
        </mxCell>
        <mxCell id="B4nHwGPNu4P-VPpUnSVg-82" style="edgeStyle=orthogonalEdgeStyle;rounded=0;orthogonalLoop=1;jettySize=auto;html=1;entryX=0;entryY=0.5;entryDx=0;entryDy=0;endArrow=none;endFill=0;" edge="1" parent="1" source="B4nHwGPNu4P-VPpUnSVg-40" target="B4nHwGPNu4P-VPpUnSVg-70">
          <mxGeometry relative="1" as="geometry">
            <Array as="points">
              <mxPoint x="110" y="450" />
              <mxPoint x="110" y="605" />
            </Array>
          </mxGeometry>
        </mxCell>
        <mxCell id="B4nHwGPNu4P-VPpUnSVg-83" style="edgeStyle=orthogonalEdgeStyle;rounded=0;orthogonalLoop=1;jettySize=auto;html=1;entryX=0;entryY=0.5;entryDx=0;entryDy=0;endArrow=none;endFill=0;" edge="1" parent="1" source="B4nHwGPNu4P-VPpUnSVg-40" target="B4nHwGPNu4P-VPpUnSVg-71">
          <mxGeometry relative="1" as="geometry">
            <Array as="points">
              <mxPoint x="110" y="450" />
              <mxPoint x="110" y="655" />
            </Array>
          </mxGeometry>
        </mxCell>
        <mxCell id="B4nHwGPNu4P-VPpUnSVg-84" style="edgeStyle=orthogonalEdgeStyle;rounded=0;orthogonalLoop=1;jettySize=auto;html=1;entryX=0;entryY=0.5;entryDx=0;entryDy=0;endArrow=none;endFill=0;" edge="1" parent="1" source="B4nHwGPNu4P-VPpUnSVg-40" target="B4nHwGPNu4P-VPpUnSVg-72">
          <mxGeometry relative="1" as="geometry">
            <Array as="points">
              <mxPoint x="110" y="450" />
              <mxPoint x="110" y="705" />
            </Array>
          </mxGeometry>
        </mxCell>
        <mxCell id="B4nHwGPNu4P-VPpUnSVg-85" style="edgeStyle=orthogonalEdgeStyle;rounded=0;orthogonalLoop=1;jettySize=auto;html=1;entryX=0;entryY=0.5;entryDx=0;entryDy=0;endArrow=none;endFill=0;" edge="1" parent="1" source="B4nHwGPNu4P-VPpUnSVg-40" target="B4nHwGPNu4P-VPpUnSVg-73">
          <mxGeometry relative="1" as="geometry">
            <Array as="points">
              <mxPoint x="110" y="450" />
              <mxPoint x="110" y="755" />
            </Array>
          </mxGeometry>
        </mxCell>
        <mxCell id="B4nHwGPNu4P-VPpUnSVg-40" value="CONSULTA MEDICAMENTOS" style="rounded=0;whiteSpace=wrap;html=1;fillColor=#f8cecc;strokeColor=none;fontColor=#b71515;" vertex="1" parent="1">
          <mxGeometry x="130" y="430" width="120" height="40" as="geometry" />
        </mxCell>
        <mxCell id="B4nHwGPNu4P-VPpUnSVg-99" style="edgeStyle=orthogonalEdgeStyle;rounded=0;orthogonalLoop=1;jettySize=auto;html=1;entryX=0.5;entryY=0;entryDx=0;entryDy=0;" edge="1" parent="1" source="B4nHwGPNu4P-VPpUnSVg-45" target="B4nHwGPNu4P-VPpUnSVg-36">
          <mxGeometry relative="1" as="geometry" />
        </mxCell>
        <mxCell id="B4nHwGPNu4P-VPpUnSVg-45" value="" style="shape=image;verticalLabelPosition=bottom;labelBackgroundColor=default;verticalAlign=top;aspect=fixed;imageAspect=0;image=data:image/png,iVBORw0KGgoAAAANSUhEUgAAAdoAAAHOCAYAAAA/o8giAAAAAXNSR0IArs4c6QAAAARnQU1BAACxjwv8YQUAAAAJcEhZcwAADsMAAA7DAcdvqGQAAKMCSURBVHhe7Z0FgBxF1sff6PpusnF3F+IJCZIEt+By+HGH6+EOh8PJxx2Hyx1+HO4SQgghAjHi7slGVrJuY9/7V3dvNpvZnR6f2X0/6Ox0T09LdXX961W9emXJLyj2kSAIgiAIUcGq/xUEQRAEIQqI0AqCIAhCFBGhFQRBEIQoIkIrCIIgCFFEhFYQBEEQoogIrSAIgiBEERFaQRAEQYgiIrSCIAiCEEVEaAVBEAQhiojQCoIgCEIUEaEVBEEQhCgiQisIgiAIUUSEVhAEQRCiiAitIAiCIEQREVpBEARBiCIitIIgCIIQRURoBUEQBCGKiNAKgiAIQhQRoRUEQRCEKCJCKwiCIAhRRIRWEARBEKKICK0gCIIgRBERWkEQBEGIIiK0giAIghBFRGgFQRAEIYqI0AqCIAhCFLHkFxT79M+CICQQXq9X/xQaFotFLYIgxBcRWkGIMj6f9opB9IzPwBDB+t8Dm82qPu/ZvZtcbjeFKpWtWremjIx0/mRRou31audpeD6sG58FQYg8IrSCEAGUWOEDC1ZDMTWEzGq1koeFs7qmWn2ura6msrISWrhgIVlZXH0shDa7jXZu30Eer5t28N9alytkoW3bti1lZWWpz1k52fw5h9q1a0sDBgzga8JWnM9BKSlpSpAtfE28ibz8Zf17AA3vSRAE84jQCkKIGOJT3zLEUltbq9atVguVFu+j9evXs5Vqo115O2j5smVUWFhEDoeddu3aRYUFhUp06+Nxe/hfH+/jUMIdKjiO1vzs43PYNDHXr9EgMyuTOnfuQn369KH2Hdqr/Z3OFOrWvQeNGjMaP2XRxzGs2vXwBu1+99+zCK8gNI0IrSD4wRCjhiJi9Jtie0VFubJQy0pLacvWLeo3+4oKaelvS9RnbM/PL6Cqykq1f0lJifothBXfQ3zjLVK4Dq/Hy2KqizJfj5WXnJwcXrJ5DwulpqVRr969qWfPnuTxuFmQO1Gfvn3VfWRkZFFOq1bacfj3WqUBaSfiKwgGIrSC4AcIBxbD2lSywQK0e3cerV+7VlmtSxYvoprqatqxY4fqTzV+Y4ixtq5+poCoYlsiUl/wjWs0/uK7+t/b7XZKTU2llNQU6t9/IPXu05uyWZgHDx6iBNmj+oJFaAXBQIRWEBoAgYHl5vF4KG/nTiovK6GVy5fRylWraPu27bxeRm62ZCG2ECBYpoaVavzeEFXjc3MC92rcU01NjVrS2OqFFYzm5YmTJtHwQw5hS7c19ejZS21zpqRwWuxPG0FoSYjQCkI9qqsqlIX66/x5VFxczH/nUxkLa2VlZV1Tr7HUF9SWSn3RRDrAmjf+wuu5Q4cO1Jr/Tp4yldLS06lrt27Urn0H1Q+Mfer/XhCaKyK0QosGQ2nQz7qCLdbt27fS1198qQS2tLRUfW+IQUsW00gAKxhWbVZmJvXt148OP/II6tSpq/qMpmiXcgAThOaJCK3QYjAE0+WqVX2r8AKeMX06rV+3jrbv2K48gDEcBvtgEYGNHJrlipYAUkOWKisqlHNVmzZtqF///jTt1FMpMzuHUlPTKSU1lffV+rcFoTkgQiu0CGw2i3Jiyt+7l5b+9htt2LCONqzfwKLrUl63GL8qxAaILhb0gaPFANZuClu7vXr3oi5dutKRU6ZS7z59lIOVxSLPRUh+RGiFZodhjWIpLSmmTSyqn3/2Ga1joS0qKlJ9rYalin2krzC+IO3rPw98hvdyeno6nXDiibzNSoeMGk3ZbPHW308QkgURWqHZgKIXollTW0PlZaW0c8d2eu2VV2jl8hVqKAr6Ag1hNcRYSBzwTAyPZs3a9ZHb7VJey926d6fzL7iQRo0dR2lp6apvXddcQUh4RGiFpAcRmFBAr12zmlatWMGW6xpavHgRuWpdylsYAgtxFZIPozKE55eekUFDhgyhEWzdwolqwICBKoSkICQ6IrRCUmNny+bnn36khQsW0A8zZqgg/IhsZDQxCs0LQ3gRl3nMmDF0yWWXUddu3bmiZZdnLiQsIrRCUqE1/XooP38vLfttCc35eTb9Ov8X5dSEPj0UttLn2rxB6wVAoAxEqOo/oD9NPeooGj/xMMrJaaW+R7Oz5AEhURChFRIaoy8Vf30+L23dvInmzP6JFi9eTBs3bFARmtA0LNZMy0OrdGH6P6/KA9179KAJEybQ0OGH0OAhQ8nhTNH3FIT4IkIrJDxwfPlt0UL6mQV2+vTp5MbUcRBf/CeWi8AYeQAVLrRuTDj0ULrokkvY2h1Ebo/0zwvxRYRWSEjg4LSvqIg2rFtD337zDS1bulQNzTGah8WCFRqCPAHBxfCt6upqlVcOO+wwOumUadS9V28Vj1myjRAPRGiFhAIFZWVFGS389Rf69JNPaOuWLVTFhSYcnJQVKyWlYBLkFTQrZ2dn09hx4+iIIyfT2PHjyUcHzv8rCNFGhFaIK4YVggU+Lr/Mm6PGvm7bspUcTqcaTykIoWBUyjTnKM1BDv24Z59zLk2eehQLrlZxw3ZBiCYitEJcgYNTaWkJrVuzmr78/HOa/dNPqslPCr/wiaT1n4zPw7j/+tcOwbXabDR2zBi68JJLqWPnzpSWlqF/KwjRQYRWiBtwclrwy3x6+43XacvWrSrQvwSX2A8EAgsEw7DIAJzB7I4DAzUY3zmdTmqdm6s+t2/fXosXzLZbSPAxS4pL1Ly7VZWVVF1TQ/v27SMXr9fHiFlsYEwniL8A30VS9MMF14ZrwgQSh4wYQcccexyNHosmZUGIDiK0QkxBgQtHp9rqSvr3q6/S99Ona4H9E6wwjgVaWmgTxhtCCfAZ4sZfqP5pCFa3bt3IzYJm58/tO3SgHr16UYrTwSJqJY/XQ53ZMoOnLfZJz8hS4ShTU9NYkO3aQUMEzwZATPG5qqKMvB43Lk2FRly6dCnNnzePSkqK+XpZVPmLwsJCKi8vo927dqtrRwsFKgC4L9yrsRiCV//eY4GR7sbnstJSOuW00+iS319Gbdq2V9sFIZKI0AoxAwKL+MMLF/xK773zjiqQUVi3FAyhMYDIGPcPIUpLT+NtPjV1HGavsVpt1LdvH2WhtmvfkcXOrfZH6MEaFuJ6h4orEH9j9iPM7btp00YqLytT4ovp8FasWEE7t29X35eVlytvcog20kJVKBikTX3xiyWoDOA60AJw+JFH0gknnUKduOLCV6XtIAhhIkIrRB0UohXlpbR44UJ69523aVdengo00VB4mhP77w3Nv5qowipE0ziE08ai0pWtVBTovAeNGz+eMrOy2Tr1UseOHSkjI1M1ZWL6OBzLy79V8GesJwy4xwbXYzxTdA3gJqqqqlhYa5WQoum5sCBfWcV5nA/mzZmjrOBtW7fS7t271b0Z1m9s7xPPS7OuMYHBsccdR2ed+zu+brf+ffww0jOhnrsQFCK0QtRZs2o5Pfevf9GK5cvVUAsUHM1NYFEIQkwhJviMigTuESECQW6bXOrZs5cKEXjyaaexgKZSdxZal9uj9mtYiO4vXNW/6nOy4u/+DOxsCeM7RPzK27mdKioq6c3XX1fjYPPz85XoGn2+AJUVfI5m/sHxMSHFkVMm04UXX0zde/ZR540HlRXlVFpSQh07d9G3CMmICK0QFdBMnL93D33/3bf08YcfUmlpqSo0IUbNCVijXG3QPnMBjaZdLCNHjyanw6nGbTp5vf/AQZTNImvsZ4gP/mIxmk1bMkZ6uN21qjl69qxZ9OEH79PuXbsoNQ0VFgsVs0WMfSB8hrMVwLZIgOPgOrBUVVZR67Zt6Oyzz6YjJk+hDh07R+w8ZsBcyi89/yxt2rSJbrr5VhowaBCfX/9SSCpEaIWIgybDWTNn0FdffEHLly2rK7hiWUhFGlw7xNAoiAEKe0QbgtXao2dP5eE7fsKhlNOqFfXp04+snA5wSFJWLn6g/w7UP47gH6TO1q1bqIAt27bt2ipv6y1bNlFRQSHNmPE9V+TyVX9vCqc/KnFI00jmMTwf9Jk7nQ7K4Wd70y230PBDRvIX0a8UIW/96+m/0fTvvlPXMXLUSLr7vj+re5V8k3yI0AoRwRCO4n2F9MpLL9J333zDBRT6F7WAAZEsAOMB7k0reLUg9lh69epFx598Mg0ePIR69upzgIVlWO5iqYaOkWf8CYvDAYv3R+Vct2jhQvpt8RI1dR7S24ZJJjj9I5XncH6b1Ua1rlo64cQT6YqrriFHSmpdno8Gvy1eSLfd/CfKzMxU50Hz8SNPPEkTDztC30NIJkRohbAwChs0Fc+d/RO989abtGHDhqhYGDEFBah+/Vgy0tMpt21bateuHY0eM5Ytm0OoTbv2lJ2do75XBS7uNUoFr6BRl9YM/kBYMbn/3t27aNaPM5VTFWZ1Ki0ro4ry8gP6d8MFx4G3dI+ePZTYDh12iIpeFmlwuZ9/8jE9/+y/6mamgoV79rnn0SWX/YG/l8pbsiFCK4TNHi7kZs6YTu+/954qiFAgoXBIRlRh6nYrr2AU0q1ataJhhwynseMPpT59+qqmu9zcNg0sVdyrCGy8wbMrKy1RY3i3bdlMC379heb8PEflyXIWXXhwg3D9BJC3M7Oy6MjJR9INN92sZgdCE3OkqKqqpFdefJ6+/frrA/IZPNNvuuU2ysjMUvcqJA8itELIoMDZvGkdPffPZ1TggoyMjLALsXhgFFqGtTR4yBDl9XrM8cdTr569afDQYeo7Y5Hm4OQArSyu2mrK27GDPvrwQ/ruu2/VtIrG2GU8y2BB/kAeRyUMAt6hY0e64cab6JBRYyImfrvydtJTjz/K79amA66xT9++dNudd1PHTp1FaJMMEVohaPDyFxUV0E8zf1DRnTD205GkoRNxzRBODDuCQ9NZ55xLAwcPoYqKCmrTpu1BIiwkJ3DQW79uDS37bSmtWL6M1q5ZQ2VlZarf1WF3hCy6aNLFuOipRx3Feec8ysrO0b8NHiOPLfx1Pv31ySdUZc94p5BH4WT38KOPUXeu/AnJhQitEDQIPvHYww/RqpUrVUEQSiEVT1QBiXGu/Llvv740eswYOuqY49QYVxSUXi/GTGqiKuLafMCjRH5Fn25xUSH9Mm8eLf1tCc2dO1c1K2NIEfJEMPnZEEcsgwYPVmEcBw0Zpn8bGt98+Tm99MLzaiy2AY6PbotrrrueJk89uu68QnIgQiuYx+dV09i99MILKoqP4aiR8OAS9TIJnqkQ2b59+9KkIw6nU6adThmZmWyZJJ81LoSGIVJoWkY0qLWrV9LLL76kxqtWV1WppmUIMvYx/poFXsIPPPQw9e7bj48TvKMUTnXPHbfSksVLlBVb/9y4llNPP42uvOZ6/izFdjIhQisEBO963s6dNPunH+n9//5XFUaYaiwpRLYe2TnZ1K9ff5oydSodOeUoqG7S3YMQHXxeD61atYJWLltOM76frqJSoekWlUmInZl8YuwHj/vDjjiCrds/1M2kxN/qf5tmz+48uvnGG6ispLTuJ8a58XfosGH0yBNP8XW1nBjhzQERWqFRUIO2cuGxadMGeuyhh6gAMWp5W6KDAslwWML1Yjq0ww4/nE44+RTq0KEjpadnoFRU30ccFIrqjeJ/jHNE61yJRsN7V7edXPeOiRsK8/fSnj276ZOPPmLLcrEKx4jgI/UFz4yVi9mULr3sMurYuVvd/k39Dsf94rOP6bVXXiavx3+XjDPFSa/++3XKad1G3yIkAyK0QqOgr3LHti305GOP0Y4dO1QhkQxCC1SBxgVVv/796cprrqOBgwYrp61o4uDC2FZVTb6iYiIunMnpIGuHtlRja/5z7Dq5YmMrLydvoTZdHmWmkSW3FdVabUl774gItWD+PHrn7bdozerVSvhQgYMDlBmhNaY1fPDhh2nEqLHqN4F+98w//kZff/Glar72J7TYdtPNN9NRx56gbxGSARFawS+YbeWLTz+mD95/X83XmQygEMSQCwwzgmPK8SeeqIJLOFPS9D2iA4rOdLebPG9/Sp5Z81lk3VxL8SBiPn/jI8dFp5PvqMOoOgmb2wNhR5jJ0jKq/ed/yLdqA2pn+hd87zlZ5Lz8PPKMHEzV7uStaLhqa+hXFtw5c2bTyuUrqKCgoC4QRlPP0/geLSqXXX45TZx4GKVlZOrfNoD327VrJ91/z11qHt/GBBmVlpOnTaOrr7ux2eWl5owIrXAQbreL/vfu2/TuW28lfF+sUZhBZGtqamjsuLF09jnnUp9+A9TA/mhfO8rDTLbkqi69jbxb8xAbUFNeA5yeRdc+ehhZ/vwnqmnTWtue7OhpnvLLEqq54wmyoKkTDmX17x3PprScUi/misbtV1F1EjucIZ9VVVawGObRN199QT/+MFMND4K3MizcQCCa0zjOm3fd9wC/UwdOxo88iuPPmvk9Pf7IIyp2dmOtANjep08feuDhR6l1bhv1OyHxsd1++50P6p+FFozxsu8rKqC3X/8PffzhR0kjsviLcbzn/e539Icrrqau3XtGJTReQ1DGpVRWk+eB/yP3klVkTUPAd97OAoTiTxWCvFg4Hb279lJK21zyDulPPmxPdvgeHHsKyPeP18i7u4A3aM/BWPA9sGakU+2cRZTSuxt5+/RI6nu3cyWqdetcrsyNpzFjxqj+3M2bNmtfGvftB+RRWMAITbp9+zYaPXqM8kiuvz+G8iA+OMJHNgV+g1jO48ZPYKFt3eg5hcRChLaFYwgphjps2bSBHrz3Hpo/b54qGBJZZAGur1OnTnTiySfT5VddTZOPOpoLw+gLrAHSyP7rUqp96V2yQGT9pBeKQWOrb3c+pZw0lVyOAy2aZCVlzgKq/eQ7PIgDDFmAdbWNLTALi613/WZynDiZPDGoAEUfiwrDOWrMWDrkkBFKcPfu3UvlbOHCS7khEEPkVXgjb9++nYqKCmngoIGUlpau70FUkL+XPv34AyouLta3+AetCMVF+2jixInUtVsPfauQ6EgsOUEVBAj79uTjj6n+ISMmbCJi1OARj/hQLmz+9o9/0u8uvJh69MLk3LFtmrSgyXDrTvJV1TRpWSjR4e+9O/eQ9/UPyNkMhDadqw/u97/Cg/BbwaiPEho4SfH984q+NbnBHWOIzdDhh9B1N/yJ7r7nXjr5lJPrWlJQCWsIxBZ3/+MPP9ADXKFduWK5to3TpLa2lkW2RNuxCbA/xHbDhvVq2kCsC4mPCG0LxnhJy0qL6eEHH6Dt27aR15f4/WiIL3v3PffQPfc/SFnZrbhQi71wKbmoqSXfvhLVNMyJqbY3Br71oZl5wTKuyCS/VZdSVUXuhctVM3lAOG0wbR3tKw2YTsmEUblycsUUsY5vuPk2+vPDj6hQnup+mfoVMENUAeIYv/DsM7R61Qq1fcnihcrpMJBw4nsM8VmxfLmaPKH+8YXERYS2BYOXdPPG9XTrn26iLZs3q5oytgV62WMNrgl9WLC0TzzpJHqAC7MjphyFXkF9jzjA1+TYvZfcX/9IlpxM4hqK/oV/VIFo44XTGJGpkh1PaTlRmsmWD4iOm63/mXPJbsJxKBnBO4PXBhPD333f/XTPAw9Qz169lKMUHJgMQdT20wQXU/q9+tKLNPfnn+j7b79VcZfNgN/DKau4JLAFLCQGIrQtEENIZ8+aSQ+xJbt71y6/TV2JgOFNPGLkSLrtjjvp95dfSV27dleFWjxR5WZVDfmqqnnFnFXHO5IP42tLy7RtSYyvYB//o6+YgO+crf9SstSYE5NkxcvPuVPnrmpaxcef/AtdePFF1L59e1VRNMTWAO/hhvXr6Z9P/x9tZdENJj3Ly8rJ6+a8JCQFIrQtDLzcGGuKcIovPPsvKiosrBPeRAKFklEwHXvccfT3fzxD4yceRk5nAvQfc3phujVvOVt1at1kcztuB/1qKqhD4qV5MPjy9uIh6WtmYKlFMI/KKn29uWOhjKxsuuDi39NjT/2FDhkxQjlKqVYj/tZ45/AXIU2DeQexL4R72W+/1a0LiY0IbQvDVVtLs2bOoBf+9QyVJmggCggsKgNZ2dl086230dXX3UDV6A9NlAKFr8/K10frthDBAcusE5ahS2wBN7Rukgl17SFcv29vIdmKiuuSoSUAB72OnbrQfQ8+xPn4Oho/4VA1iUX9vBxKvobQ7ty5Uz2LZM5LLQUR2hYE3sf58+bQ66+9quZbTbQXFAUOavzwwDzp5JPpX889T0dMmUppiE2cYNhhmS5ZQT781R1fAoJQjNt3ES1cxh8Ts6neDKkOO9V++A2XHpx/TIoEnq1nxy6y89ISQR7GVIw33nIrXXH1tZRbN9lA8CAt0e+7auUKNS90KEItxBYR2hZCdXUVvffOm/TcM89QSUmJctJINKFVtXMW2gsvvpgu/cPl1Cq3LbZqXyYYqq8VC2M2HS0sTN7SCqJdewkTkScrNi7kPes2aTU3k6g9+dl6i0o056gWCKa2Q0WydevWlJaWprofQkG9J7yUlpUqT+VEe4+FgxGhbQHUsMi++9Yb9NYbb1JlpWbJYkmkmjCEv2OnjnTH3XfTWef+ToVPTEj0JPO53CqmcVBFHH7Lb5yP7zWZjRBfTU1QIlsfX0VlQA/t5gjeNwSlePetN+mpxx+lvF27VMUrVHC8Pbv30PatW9RnIbERoW3mwHJ6/7136OMPP0zIF9JoKu7bry/dc98DNOHQBHF4agxOQkTRcv62ijwr1uobgwDPoIYtYQx3SVJ8ZWyVh6CViIfs+ux7ysQwpxaCmlze46KPP3iPbv3TjfTh+//Tum3078MBIwVmz/5J9dcKiY0IbTOmqqqS/vPKS/T2m28pkU3UvpxTTzuNbrn9LhXdCdeY+DV0vr7iUvJxBUEJZzBgsvmqKn441SGJVSLgw6TkIeYlX3klWaqb9xAfZAmfz0tbt2yid958nS6+8AJ67ZVXqLSkRIljYxMGBAPeExxr88ZNanYh6adNbERomxnGC1dTXa2aizHNXWNzW8YTFDY5rVrRBRdfrOaL7dZdi9uaDM1gcH7ystBCNDlh9a2BUc/AZiVvRRUvlUH9NpHwFpbwpUMsgq1k8ML37Nmdr603A+q/V/iMOZw3rl9H/3n1ZXrwvnvprTfeoOJ9++q+j+R7iHcF/hbr1q5JivemJSNC20yZNXM6ffLxx/paYoHCBlOBPfzoY3Tm2eexXmlzeyYLDhYZ74YtaBfUt5iE79uankaeuYvIu3gF/z75Ckc0hbre+0I5ggX9yLC/2628tdFl0JxAF43HVUOvvfQ83XLTjfT+e+/RvqIidZ/RytuG0BYWFjS79GxuyNNpRkDA0N8584fv6ZWXXlYFeyRr0OFiFDjdunWjvz39NPXs3TeqBVE0wKVmVFaR69vZZAlyiI66T/zv8VBqbo4qnJMNp9NBTr524nsIHgv5yjntPplOGemp+rbkBc8TzoU7d2xTFuyVf/wjvf+/91VrDVqRItFEHAhMbICp9aoqK/ldb5ne3MmACG0zAk4RP/34A7328ktUXV2tb00MUCghCAVE9robb6LuPfvo3yQXqLd484uIQp0YAPUeXtTwoCQEk7srj+tgm40NUOJwXvCgjzqJQeCX+XN/pmf/8TTdf/dd9AFbsHv27FYtNZFuIm4MnAMtDHv37FHvVjJVWFsaIrTNAOOlXvDLPHqVRRZOF4lkyQIM3xk/YTw9/PgTNHjo8KQtFHDZ3r2F+loo6M8lJIswAUCsYghtqI8PCYhKBhyqkpSKshJ6+MF76c8P3Eezf5pFhQhjytvROhPL984419o1a2jvXgQCEaFNVERokxi8aFhQq92xbQs998w/qaK8XN+WGI8WggrvyNPPOJPuffBhym3TTv8mSeGyrfqpF4kwp2wohar6CZpQK7UhPqEcI25wfquoJF91jb4eApxu3t0FVPPuZ9o8tsl0/3ytG9atoeuvuZoW/LqAnA6nyt+xaCL2h1FZRXdReXmF+iwkJiK0SQ5ets0bN9KjDz2kYhcbAhvLmnVj4NrQhH3KtGn0u4suZsFtDhOee8mzK7wJzFmutAD7yqpNJqHh/5VFyxZpiPdv4f+8+4rJzhUNB5rfw0jHWGO1WWnRwgW0ZcsWNUGAUaE1BC8e7xw84CsrK2n+3Dn6FiEREaFNUoyXuqqynJ549GHKy9uptiWKwALUtH93wfl0xdXXUXoCxisOCQTF50I2VFRcZE4ez4p15Csp5w36F0mCd9M28u7YrYYphQymZEQ6QLCTCFiuF13ye7riyiupQ4cOyicC3TRwRAJwgGo43WTU30n9XUPztZC4iNAmKWgu3rZlkxpKsH37dvUyW8zMixoDcC2o6Z91zjl04cWXkTtZ+yP94CtCsAZ9JQRUscgFtmXbTkrBgRKkid8MmAghpbKKvAVF4eU1JEJltbYkVUXDQrUuN5134SX0wiuv0r0PPEj3PfhnNSvPhEMPpS5du1KHjh2VtQvBRYWzvtAaFdBIA/+HLZs2kdsVRpO+EFUs+QXFSZXVBQ30Ff3tqSeVyOKljmqtOQhQmMAD8qxzzmZr9uKEnHknVDAcx/Hxt1SLPlq+z1CLTa4Ska1/T7I/eSdVtQ19FpdYg/tP+X4O1Tz8Dy7dOb/BKg0WTjSf20O2QX3Jeu/1VNsbk/gnZxGEvI4Flm1lRbn6W1NTTVs3b+ak8dDSpUtpzapVqi6xKy+PCvIL+H1I43REi8iB9xxuGmRnZ9Od995HQ5LY0bA5IxZtkoEX0u120cwfZlAev7yx9nQMBGrXo0aPpsuvuq5ZiSxw8OKbv0R5DIdTlLGdo0TK9PR6iQLymUcf2hNqnuOfWVKc5FmzkWw7d2l9nPpXyQbeOzQnW1nYMrOyqVXrXLZoO9O4QyfRhElHsKV7I1u+rynr94m//IXuuOcu6tO3r6qwGO+tmysd+It1lRa6eBvHN0txcTHl7dyhjiEkHvJUkgjtxfPRr/Pn0a+//BLUixhtjAJi9NixdN2Nf1K1++aGt7hMG/+qF4RhgSEycCwCifMYGwd5DaKgJhTgz+HkPczeg7l5MWUg55NEysch0Uh+gAhXVddQdXUt9e47gI4/8RR64q9/p1f+8zrddudddOOfblYtPxMPO4x69OxJWVlZlJ6erhajrxdpYyygvhAbYL2qqopK9u2LSNYUIo80HScJxss24/tv6d+vvEwV5RV1L18iAEt22CHD6YabbqGOnTo3w5q1j5yFJUQP/4PcC5aqsJHhYO3Skax/volqBvTRRCvRS0i+RqvLRc73viDXa++xQIZhjStrjshx82XkOuVo8mG9hShE/XcW74jLVUsVFZWqf3Xvnr1UoU9juTtvJ/3044+cz6yq2Rm/KysrUwu+hxgb7xgEHd01h06cSLfffa+a/aqhGAvxRYQ2iVi6ZDE9+fijdWNlE4kBAwfQ/Q89SpmZWc3yJVf9kz/MpZqHn9ECLoSZ/pYObcl+73VUM2JIUhi0uF8bW+D21z8k97ufqebzcLEO7kO2R2+j6rZt9C0tD/Ue8wJBbUjda+T1sHg66ZtvvqYN69ezKKPr6Ac1nA9owkp0/4MP0pjxExOubBBEaJMCvDiYAeTVl56nn2fPVjXYxADNWESHjBhJ11x/o/K4VFubo9DyPaV88T3V/OUlmBD8UPQvQoGTx1fjotTfn0Xuay+mWk9y9NVm7Cum2useIM+WHX6FwSzIz8gj1h5dyP6Xu6mqU3v9m5aNli746/8dwjZU+PD+b9uyhdzuWjWEDpbviJGjaOwEEdlERfpokwCH3U4vv/gc/TRrVgKJLAoEL/Xs1YuuuPoaat+hg9rWHEUWEYzQN4s+Wk0lte2ho5Wm8L5NJlQ6qPwX3jOuyyN8/2q6QIUIhJYuB/fBGkBE4Tzl9fqoa/ce1LN3P+o/cAhddsVVbMkeKiKbwIjQJjjo+5w9ayb9Mm+eviUxQGGQlpZGxxx3HHXt1l31FzVHkQXoP7TW1JBvW17kPIWRVCo4f/KgynE4MkVIFBHO0bJzNycFjtc8804sSJTx80LjyBNKUFA7hfX6y/y59Nqrryhnh0QiIyODLrz4EjrplNP0Lc2b1Opq8ixYpvomI2U5IAyjpl7JgQ8zQkWoooG79uzKJ1q4jBwNoikJQnNDhDaBQYH+9Refq2mwEgXNU9LFAjuNTuQFtIQmKy8mAVAte4037QUFWyEqQH+CVaD8oj9fFRXLjTHE4d8/0lDN54voUBFwrGrJNNeWpOaECG2CUlVVSX978jFatnSpErJEeJlwDRDZo44+mi64+GIWXS3MXLN+0Q2RKTZEJkLgQFiSww9KR08L9W9k8FVUJe3cvIJgFhHaBAOiishP3379Fc35+Wd9q7Y93kBQx4wdyyJ7KV+PpW4cX7OG7zk11Um+L37Q5qGNRKUCFSeng1wz51Papq2Jn45IgxROg69mknd3PhvjEUqDFE6D2b9S2pqNLSMvCS0Wyd0JhGG5rlyxnD77+KO6bYkArmvAwEF0+VXXqIAUzdqKbYCNRcCHicoRxUjfFj4W8pWVE1XXRES7ow2miNPm0OU0iNj1Yl7eCvKWaEEYBKG5IkKbQKCwQSi1b778ggoKChJKZLFcePHF1K17jxZXKHorq8hXXQu1iey9YzIIIwxjooO8iAV5QbV5RwZMOejLL9SOLQjNFBHaBMGwZr/49CPVZJxIYpaSkkKX/fFyGjp8RMKIf6xQT2HrTvIV7YNpG1lBgEMUW3TJgLrrSPelIi1ZaDHBgLVWpngTmi8itAkCCvQFv8yjjz74oE50EwEENz/nvPPopFNO1be0LJxOB1nnLSb3klVkcYY+4fvBsMhYLeQrKNJVLLHxlZRpw3siOWYT+TwjjWpefo9Si6X5WGi+iNAmABDWktIS5QBVVlauCpxEsBxxHX379aNJhx9JNrY8WmJBiAAVvmq2tlKckRVEHAvPuYqPHakgGNFAz4e+Gr5ORLKKdBZAAIycTPKVIeqWIDRPRGgTAAjYt199QYsWLVKxTOOJIaYQ+pycHLr6uuuV81NLBeNcMbRHi74T2coPxpF6Vq0neyKPpeX8YGXL27pzL3n35Ee++RzH4nN489myF4RmightnIGgrV2zir775hs1K0e8LVkjljL6ZU894wzq1buvWm+JQGDsm7eT67vZqolTCz8YIfg5WziNa7/6kRyVlXUVnETEbrORdd0m8qzfopyXIgrnN2t6Orm//JGcErhCaKaI0MYZTHn34fv/o927dydEYYvxjCmpqXTWOefSmWefp64pkUUgmqh7Ly1Xs9XAaScqYExqTWIHbFDVC64EKqs+wllBVSwddvKxkFvdyRX7WRDMIkIbRzBhwA8zptOv8+crp6NE6Jd1c2HXv39/mnr0MQlxPXGFbx+Riyzon41ws7GGdkwV8ziBgbaqfmpUuCKcDHWVOKR1WXJ4YAtCsIjQxpFdeTvo6y+/qGuuTQQ6d+6sglK0bde+xVqyCq5kYIyrd8duzZqNZLOxAQ6JYBgI75jAYDo/NQwpEhGh/IG0ZiH37tqrbxCE5oUIbRyApQgRm/vzz7Q7L09ti5fY4loMyxXT3p134YXUo2evli2ygO/fUlBE7m9mEWVlRG56vAPgfFAntFEQ8ggBEfSVlHNpgVl2In+dyrO7cB955y9Rc94KQnNDhDYOQMQK8vfQd99+Q2592rV4CRvOi35Zh8NBp595Fh12+OS67S0Z3D/G0FrQN8llf7RSQz17zGKTyPrC+YPUNXJlIwrXibTFnL9O/mBr2dlOaKaI0MYBFK4fffA/2rF9hyrQE0HU0GR8+JGTlbdxSxdZBT8jb3EJkZoz1pw1Cw1SOmTWKvOyyKankevT78npTUyPW3heO7ftoNrPZxBlppu7N97HSAuTKaF+42Wr1odp8wShmSFCGwe2bt5I07/9jkUNTjbxB1PfXXb5FdSlazd9i6BAyEHTSqHDVnAwWDDp+Z4CsngSp5++PiqucVUN+QqLtWs1AypqGG8LKzgYEE8aQTEEoZkhQhtjqqur6JOPP+K/1VyJD7YUjzwOp5POu+ACGjr8kIS4nkTB5vGQdd4S1XdIJkRQpZzFSpbB/ZXzUNAk6JysuC8E7VAiazJ/+DAeNiuTLF06qgqEmXyFNhT3ohWUWlKibRCEZoQIbYzZnbeDFi1YkBDNsygAO7RvTxdd8ntyOJzSZFwPJRAFRSyabtNCYe3UhtLuuIJsvbqaFiUF+ukTeYhPZZV2g0HcknPaUeQ86wQ1RhYOX02CtOIF0wZaEtwDWxBCQYQ2hng8bvr6qy9pXxEX4MEUxFEADlAIsXj51dewwEo2aIgKvYj5YrnyYbYCYht9CFW1yaXUK36nTX9n8ncQc9UXnGggj8IjuIKvTYll4DwLD2Jru1yyXXImuYcOIGuXDvo3TYB0Ugv/fneBvhHniu87IgiRQkrYGIHCeu7sn+ibr75WAfrjCa7FyxbbkVOn0qBBQ/StQn2smIM2v0gZcqZJdWjWW3oqFEcJR0AgZtW15C3Yp29ILNRY4r0sfsizZnQP+3D+sqSlkoWtWcy5ay4hGM6T3i3b9Xjf+E1QqS8ICYsIbQyA9VpcVEDP/euZuvV44uECrV37dnTZZX+k1LQ0fatggIpIyo5d5Fq4jHwmgjTgecIqtbbOIUphsU2F0OIbc7/1YuLzRcujFg8iZDgdbMWl5Pl2lvKOVn2vZkALidNJlswMzRLmGwuU51Uasqi7vp1NWfBuFoRmhAhtjJj1449UXl6ur8UHo7DLys6kK6+9jmwOR8ACsKUCJygL+q1NiCWsWGun9uQZNoi8cIhy2tW4UF1tm0Qdna0+B1vBVvWbxAEVDkeqk6y6I5TZJnTcN8YGuzPSyXrEOCXQlgCzUqljY2FR9hQV61sFoXkgQhsDSkuKadbMH1S/aDyFDYUZruGww4+g4YeMQNkZROHZkmDrane++mtGLCEQmN3Hl5uj9nZnZpK1Q1vymQ7bqFlzZrybYwtfF7yhlRd14HtRe7BQWnt2JTfCNmKoU9dOWvhKs34AfD5vnh6KUSqBQjNBhDYG/Dp/Lq1fv15fix8Q1cysLJo85ShKTU0TkW2ENLbgXN/P1foXA5T1dRUnm131S2K9pl0bcowaqryJTcGHwATwIQ0LijI+l5srDHxdJjQPuQnDgBzHHUHVGBPLn60ZaEbnH5vIavgtxut6v/1JReVCBUYQmgMitFHG63bRF59/rmIZx9uaxXy3F158MQ0ZNlzfKvjDUV1N7nWbTFVEtH3Yos3JIsrO1LbBCUg5RKlVc2DmmloWp0QC119VReQyZ9EaWGDZK3HldGmVTWTnYsbEz7GLl8/nXbeZ7AGamgUhmZDcHEXgPfn5p5/QurVr+XOQUXIiDKa/6923D02eepS+RWgMz9Y8zbrS15vEaiVvdRVZzzmRalNStG0QmFR8hthomwLCImvBxAWmThpDMFduMBVEvl9LFlc4+Ddetuhr+/Um56nH1g2VagpUWixWTveqavKW8v5xrJgKQiQRoY0iu/J20ueff0Z2uz2us/OA3Nxcuuzyqyg1VTw6mwJ92N71W1S6mdJIXTwO2rduCJeJo/C5PGs2krO80tTuscKKNFizgXz7SsgXTP9xGlvzOoa2+nz8IYDQKmGFHwOCViAspb5ZEJIdEdoogYJ65YoVlLdzpxLaePWHQjiwjBw1mgYPGaquS2ic1BQHuT76hh+gSWGBfmBygE7t9Q2MlS0zFcfa3DPnvcmbX0Q2V2KFYcSUdRYWPEyTZzr3Wji/4d6R33nBsCBrx7bE5q2+Q9NYOP3dK9aSZfkasqMJXhCaASK0UaKsrJRmzvienE4necw6xUSJ7OxsOu7EE2VmHhOoUIgsLFzka2LRBKrKgn34g6vevm6Xh1w4jonxoxr6PnHOJweBVhg4aJmsnGEvX3U1VVXt72t28zFcai5btlT1bU3D6YjzVlTxX3O/EIRER4Q2SlSw0G5Yvz5uTcYG6JsddshwGjx4qL5FaApf3t79cYcDCAwqLb7ySnKefwp5OnXQ9ufFh1lrJo1hS66d+YoNfldRqa8kCCx0wYSShAXsOHwsuXNz6tICEcgsxx9B9mEDzE2cgN/Z7NqUeXDEwrogJDkitFEAc3h++MH/qKSkxHxBGwVw7iy2Zk87/UwVVEFoGjw3Wr+ZfCVl5tILz5YtPmu3zmSBl7FqYIVDj4VsEFnlEGUSFhRfEWaugbAkiLiwhR2c+FvI2rmDGuak0kZfbF06kQXRnlDpxLYAIN28qzeQtaiYdw+8vyAkOlL6RoGtmzbQ119+pTyN49knivOfevrp1Ltv/7heR1LA6aM8wzds0TxkTYGADrVaH6Rqatb+KHAsDFExqxM+L3nRXHrAQeILxvXi/szDeQyVi4aVlJxMTXxZaAPlQ0xKgP5t79pNZCtGhYfTQvKukOSI0EYYVMBf/89/EqIm3rFTJzrmuBOUgIhlEBjVTFpZrT1EM+nF5b+lVRZZ2uToG+oBkbUGMaQL/ZF7C0ydNlbY3C4iWPdBXJRyAmsgtJBJS/s2yhM70JHqn8tXg75yQUh+RGgjzMYN61UUqHiOm0VhhfMj1GJOTiuxZk2gCvjScvIW7cNKYCuK94EwOyYfStX9+5KnYV+8smghGoGkhU+FY1XVkPu7nxIqoH7angJy/7pUSw+zwFMYVqgBpyOiRFlPOUqFpVTNx4GAxzdm8uHzq2AZwZxfEBIQEdoI4uMCYv26tWq+2XhbkLBmx0+cKNasWTiN7Hvyybti/UEWWVOgP9GCcIH1gEYjWIMKqcjHDVTRUU8H/1jMeubGBjVPLioMJvIPrhv3Cecnv/eAIBYmoz1hzK5ySFu4nOwJNuRJEEJBhDaCVJSX03dff62ELV7exjg3hhMddfTR1L17T9YMecRmgJZYamrIV1Gh0jAQSlggAtmZZHEcKLRQWhemiRs2UFlw5hzR+JwICuFicUsUVJ+xOZBmCLfo7tWdvPXTT/9sb9NKJRrqHKYqHmhKLyoma6INeRKEEJBSOIKsWbWCNm/eHLAgiSYQ2YEDB9K0084gR0MBEPzDz0tZUYXFGPipqUEAEC7RBm/jcYdQrZ9hK9bcVmQbO1wF5TdlIbO6IHi/p6RM3xB/vCWl+icTQGhZTG0DeukbDqTSaiPbpNGqadlMRcZi4WdSXqGCZSji+E4JQriI0EYIp9NOn3/+OdWwVWSmIIk06py8pKSk0rEnnEBO/it9syZBOtXWkmfj1qCCRliyMsjXqb2WzgckNZ4F/4/xtMEAL9/CfdrnBHh0arhREHnZgqnw/Pom+MjL263dOwWcl3Y/CMVYRt4du/V1QUheRGgjRF5enoptDMGLR7MxzokisXOXzjRosBZqMR6Cn5RwOjlh0S5criyoQBpXJ6zwos3QnZfqJ7X+GU3KQT0BPEN4Piviq7Qq79RdiwlwoxDRBv3VGvwlf6dmONIrf4EqgT4rv0fbdpJ17Ub+KYqpoFJSEBIKEdoIMe/nn2njBi4U4uR8pPpi+byHTpxEHTt11rcKpuB0s7H1aUEfKeIW65sbA8/XZ+H9stK1yc0bw7BozWQHzjcett68H3xNqal6rOA4kp3ioOp3PkPGqhPHJsH1Ig39WrQMhLZ1KzT9qNVA74j6li18G1qI4MUc3+QQhLAQoQ0T1Mxrqirpyy8+p6ysrIA19WgBoUXNf8TIkapvVqxZkxgW1t5CIj0+cUCwT2oqWU+YTLVs0SL0oF/4eZjND+p5oSWkujoxnp3HzRZtjSagATjgHhsRWngj1/btQbZDBhlJHhirjby7+bmIQ5SQ5IjQhgnC9u3YsZ3Ky8vjJrIomNE3fNwJJ9CAQYPjdh1JCaedEjZMBaeaSs2KHO+ntyL4S20vW8aeju3JPnqoGiNrRrBwSJ/LE+dGY4bzj6/CiPes/WkK9Luiyd122FhyNzbjDu7fwlat6qM1eYcwpotLyGImRrIgJDAitGECTduxY4ca2hMv4Gk8ZepU+t0FF7FBEb8p+ZIVJ8Rh/hLybt+l9TM2garEQGDZ+rTmZGkOT37SG/t527UmS5/u5DMlFHxcHMfFYp8AwoJ4zwozWYmvG97Vlv69yFM3D+/BWLIztRCNZoQW6czPxfXDXErNL5Q8LSQ1IrRhUl1dRXNnz1bOSPGwJFEA4dyjRo+m7JxW+lYhWHxcmPu4whKoOEd6w/K1De5D7q6dyNvEM7ekpKoYv6pp2YROwGsXlqQSuTjkpTr43N7d+ab0UINvDteLZnR9iz8gwpYJo7RxxyaE08L/qbHK23eb2V0QEhYR2jDJ37uX1q9fFxeRNejXvz+NmzBRXxOCxVdaps/YY0oNidxusnbtTL62rZXzVKPw8Sxw/mlqHwPsgmOjnxYRpeKMOStcB8nG1x1otiIVprJ3Ny1Mo2m4Irl7bxCiLwiJhwhtmKxZtZIqKir0tdgDa3bipEmUkZmpbxGCwcriZt21lzwbt6nhOqZKdIzeQpMx7x9wb97Pp6mott4UvC/GjVp27SFrgCbsaOKw8XUsW2PKwq8Dt9iUB7aOmnTArHnKlVeEt3QvWEp2hIMUhCRFhDYMUF5M/+5b5QgVD9CMmZmVRUOGDefP8ihDAYJm27ydPGs2auJpQmeVALFg1M272gjqG9Wfa85CtbCl59m0jax8PfGclMLOaeKZuwgmqL4lAEgDFkKtv1rf1hiYxcfscRmkieuHeeRItEnxBSEIpHQOETQVlxbvo507dsStUMQ1tG3Thvr1669EVwgSNPdzoY9ZYixNOPHUB9aptXU2ubIyqbaWrawmugzQf4sJ4S1paU3utx/NAxrhIOMKrEfMoIMsZSZfubni0aEt+VgUA91mFWJA9+yiwk2ag8/PlRXvrr2mLkUQEhER2hBBgTj7p1lUWFiob4ktOH91VTVNPfoocjqb7hsTmgATm8P5CP2zZrQQ/aetc8hx4hRNiJrAxULsO34y2UYMMjeBulIpzQFI6/M3c0GRx1ddzfepi30g5UTFoLyCUi49i2rat9OvuwlYNFMuPIOoxmQfsHE85SCmfRSEZEOENgRQmFRWlNO6tetggyjRiyU4P4b0DBk6hKaderrJ2WGEhiDd7EXF5Jr+M1FmRmBRAbyLFVYZhqpAaZt69vgaXsdo8cChzWQT7FteqQ3xiZOw+ErKNavWDLh/vk7tPgPnQ7wrllx9onwzzmf8TPAb788LyB7j90wQIoWU0CGAF7+oqJDWrl1NzhSnEr5YgihQWPoNGMDnT9O3CsGCcttSWkbevYWqf9FUMe7ThnHZIBZmfpDBz0fNomQuj/hwTK5EKe/jeAGrPZjzw+MYE9abFEJb147kq8QUfOb2R8r5duWraQwFIRkRoQ2RLZs3057de/S12IKCHmEWj5g8WRsyIQQPSm+vj3z5mKSfXwMTQ3CQ7pbUVEq58DSqrDYXcF+1dignKxw/gLBAsFiY3fN/I8/m7WoqvliDMb/uH+eTt6Co0XCKB8C35OO0U45hJkAaVuXkUMrpx2lDiEyIM9LQV1ZOvn0l+hZBSC5EaIMEBUVtbS0tWvArud1uNbwmluD8sGa7dutKnbt007cKQcPlu4UtR9+uveqzJoQmYNG0Duxt/rnjPKqJNLCgKCHn4/u27qBUHN+kg1YksTsdZC+vJF9puVZJMAVXEIIYG+tG60GPLqpiYQakC5rTraXmJuUXhERDhDYEvFxA790LL0iLEr1YgvNB4EePGUvZ2dn6ViEU7DU15JuziD9xQW5WOFHR6dZJXwmM0m9DMAOIuSEiSrTYmoyHpuCcGLuq9Z+aqHxgFytbvuifNbE7QMXD2qaV1kRuAlwJxhfbuQKCcc+CkGyI0AYJCsO9+XtoV16eqmnH2qLF+XHOQYMHc/kdOECA0DgI9u+rRPB884W3pVU2+dq01tcCwMJTzeewTjuaLIGiSBlAjJGlzDojRRgMLVJhD82IJudFeFM7jhhHtUMGKAc9M6j6Rrs2eiQpEyfCeXxe8hbs06/NzMUJQuIgQhsCq1asoKIi9O3F3uPYxQXNsGHDaMKhk/QtQqj4MC0eht2YLbj5WTvPOJ5Ky+HIYwLOGhhLa+3YTm9aNXceiAriKavLiqWo4Fw4L9IF2drMqbnSZ2mdTZSTae7ueCdUFGuHDiD76GHmgleoNOALKinVHLVi+8oJQtiI0AYJrNiN69epMayq7yiGGKLeuk2bmJ+7uYGUtG/eRt48OLSZS0uV+inBtyJYcliIzHYx4LnCSQteuTFuLQHKQaka0/qZvV7eNTWVE9NkuugiieZjn81KPrMVVbaWPYtXUgosWlFaIckQoQ0CiFtlRRktXryIHCbiukYD9M+efPLJplohhcaBd6115x59phx9YwAQetHaoa2+Zh7VRGpaaHlxu8iyLY+saIqNYYsJKnK20nLdQczkeTkdVZ9ukCBNlKcyKhX6tqbA8/Lm7ZaYx0JSIkIbBCiIZs+aRXk78+qsy1iCPrD+AwZQz9599S1CyHBaYio40zGiuaC39e1Jrp4heHrDschkfvGxkPgqa8i3dDXZIbQxBFamvWgfeddt1ixOvmdTYPhSkLhsdqKxw9X4W1PvEu+C/mPv1p3aulQ0hSRChDYIUCCUlJbE3NPYAELbp08fatXapDOO0CgYo+orLlUFuDksypp1I4JUkNQ/RUDxguhAmEGsmy34dOrylPAF9j9Qtih+EOz7wL/x2fk3Pbros/mY+T1fCxy1CorE81hIOkRog8DlqqWd27fH3NMYoNDDcJ6pRx/Nghv78zc3smpq1KwwPrMigbIdM/YEMV7UwMVCYsW4UT6XKesN4oUmUgT2jyHQWNUvrPK3WmsSC+9iycki6tZJVQJNgzTgRfM61j4HhPdBxcj96XRKT8esSfp2QUgCRGhNAksEk7zv2rVLRWWKB3Y+b9u2JgK3CwFB2MWg5luFMLTLJQowuflB8LOqsdvINna4qSZWXA+fSYt1HNMKFecpWJpwhEL+MpPFeD9Y+b5RQ7lewEIbVL7ku8xIJ8pARCnz94khWcpTXBCSCBFak8ASKS8rU7P1xGvu1/79+1NWTit9TQgHONaYsqQAQhFmZZBv6kTyhBKtCcEn+PfBoMb4YpiNWolBxQqngCWLMIdmm6xxXZweKs4xMJuegM/h6tSB7CdOIR/mmjWay5sC+2D4URFfIy4xBskiCJFAhNYEsCCxbN26hUqKi4MqTyIFzt+hY0dKS0tTn4XQQaXJ9c3PwQkD9jUxO81B4HcQCBUL2OT5sBtEz2iOjUGGgxWNs/jYMg0qf3GahDJ7FPp31dAe/FadzsQ9coXFW1hMtXMW6kki74GQHIjQmgAFM/pl0XQcj/jGcL6qqqqiKVOnqmZrU/18QqOk2W3knrcQtRd9SwAglGj2RVQofVNQ8POymOxugPhgca3bTPa1G2PmeIdZg5ycr71zFxFnNn1r02j6yD8MJT/iN047UW6OasI3o7OYhg/jnq0r17Mhzc8jlPMKQhwQoTWJ1+uhDevXxlxkDexxCDDfXLHsLeRCPpi+Vi24QkjNxgoWWjQ/m2gexR5qEoKKSrKUlPNPYicmqgcZTcfB9A1D8EKsDECo4din0saM0mIfThuMqbWgT1gQkgQRWpPAq7KgAP2zsSv4AM6H2YLGjhtHvXr3NW2ECY3j21uwv1k2EFyw+0rLyDHtaPK0yuEfB/8AUDmr5GOgWRZWWMCmWf5aNeS6YhucQV2XyfvDvhBIb42LqsoqQ0sXCPqoIWQff4jmhBUInINFXU2Zh37dEM4pCPFAhNYkHlcN7d2zV1+LHSjQIPLt2rWjjMxMfasQKlZYi7BozQotKla1brJ270KWVIz5DKWi5SPbqKFkHzFIm7vVzDH4zfSZbMKNFD6uEPiUuAe+PtUvyxa+/dSjydK+jSl79CA4Hawd25Mlt3VdJaRpILQ25QxlhcUf0rMQhNgjQmuSefPmqXG08SA9PZ3GT5igDaEQwsLJVpjn25+URWSqoLawBVVbqwLna+5CocC/y8zQhrNoPZuB4WvzFbMVHIuxtIZlWFquDSsylS78M16suWzlO+3qcyhgontLepq5ig90Nj2F3L/8RtZ1m1hzVWO3ICQ8IrQBMJr5qqv1oRZxAP2zI0eNqrsWIUQ4+XxFxeQrq+Ccby7r+7weFtkcFZgBnrKhouIBBzX+mpULFmZMHrmmkgj/aB5dWZ1aZKcQdZZvkS38Nq04fViszdws9kHzMYb4qKAe+nZBSGBEaAMAqwdNaosXLaTKykp9a+xA4dO2bVuyIDasEBYw1PAsTYNm5vIqSj1/GlX37KZEIVQsGG9qImBFHbyvZ80mcsai+ZhvE03qlo3byVe4T3PGMgHeDTQhawawud8cACdnLVvQlrNPJFvfXiyc5qxa7S9/4MWM8S0I8UaENgAQuvyCvWoiAVscmqrQPzvxsElsDAUZkUg4CIiCbfUG8mzcqvoXzcEFOlujYTdTYko4k1a0EhC2fmtnzaeUkrKYeB47MWxsxRry7NilVTACYVyTfk+hV0H4UBlpWklk5jZRUXLY1TAkW0mpGLRCUiBCawJXbS1VxcGaBRhHaVPWrBQp4cJSR7Rrr4qZay7IgkU5B6mmzTCF1svHsnTpUCdMAYHYIuC+yxWTJ68CSOCcJu9Tha9sm0verEz1u5AwtLpNa63iY7LFQHk7b9lBNnGIEpIEEdoAwJrYlZdHWzZvjrlFC5HNbZNLkw4/AuWuEAYYe4khJGr+WYidiQSFJ6ytfy/yDhtIrjAd0Vxw9hl3CFkwa00Q4uAtj2EFr0Z39guUNLh8rnxaB/UhT7dOLLrhZc6qqhqyTRxNlrQUU89FCbLbS96Scm1/eTmEBEeENgBefolXr1pFaenp/D7H9oVGbd1mtVFKijQbRwKLx6vHDzbxHCEmXg9ZO7Ylb5eO2rMP8/FrMYH5wGaF1mIlLwJIxAAVerGiSp3TFJwWsLix+DCNTxjAm946sLdqojcNPxsyJkAQhARHhNYEKBdjLbJANeVpJ9e3CKGCsIbOwn3kmTmfLPCHCpSm+JoXS2oqWbOztG0m9bExLBgHbVZkcX023regKPC1RoKKSvKhe8SUIxTv4/Vq09wZU92FibVd2yDShq3Z3QVknTWfHBj+ZPZ3ghAnRGgDgNCLBfkFej9pbEFEoV69e1NqWrr6LISIoVPlFVq0JbPlMu+nhvVEqhxPCcJiQyUrJYVqv5xJFjNRk8LEAyex5WvVnLvm4ESFJ3WkulM4nS1pqebrFPxMfGg6dst7ISQ+IrRNAIsSjlCFhQVcptjUeqyAJQuP427du1OrVq1Uf60QGoZOequq+Rkqc1bbEABr21yiKYdSDUIFRuDRWzDmNAhhUk4/azdRmiO6vgHwPUh1u8mzabt54UR6hDKbkT/4varOziTboaM0K94UFvLV1JI3qLG/ghAfpPRuAghrXl4e5efnK+GLJYaooxAMZRoyYT+wSO14fktWEsEKMoWPfEj7jHRdYyOgtBAxrrgFBVoywnTECoTK2YgIhTxnKpsrH2VSXbMRei0w9Ek1RZs8oIUF2cOVEOfuvTF/NwUhWKQEbwK8wFhiOYOKgXHujp06q/JPCA8nWiS4YEboRZYIfWtTcPpjrtU2+kT7EcgDNSwmzovP0ALoB3E8UwH3w8RX69YqdCYym48tfGu7NkSTRpOLfxc2SAsWWTXMx1gPBF+rZ8t2su3YHZf3UxCCQYS2CSB0tbU1VF5h1gqKHDg3+mUHDRqkbxHCAcNklMcxxFPf1hSQG2vfHuRW8Ykjg4efqW1QXxaqIPqJAfqWow0cocwKFosx4hNbenZVXvmRABatt1dXsuSYnDiDT4uwlp68Pcq6FoRERoS2EdB0i8XjclElW0HGtliBc6HYc5h2ThH8oj8yX2UVW4ZotjUhJrrgWAf0Jg+G5ETwuVuyWUjQ52vmOnBer4+8RVEc4sPn8HIe9+4r1Zq2zQSNwC6osGAygAgBwfZ260LW1noLQiDUM7Fo46LFUVBIcERoA7Bh4wYlegBWZixBU57V7LhGwT/8yBwOO9ln/0LuBUu14P6BMJ5zZkZwYzvNoMbSBocPQ3yiBW4VgTxwjmBiMSNfRtDaByoUYxDpjT7dmpffo0wVIUrfKAgJiJTiTQCBhTULnY2lNQvgcdyzVy81tEcIH0w5p6mKieeIZ82WHQpyxByOZCmOITvadQRG5TlePD/M1Zy5ooCF/7PlF5Hr6x/JksXWtql8zmmD/lyuwESUrIzgJl5gEArSW1isrwlCYiJC2wgHCGuMa8uwnDEt3/jx49XQHiFMXG7y7StRzk1mwLNHX6ErxUkeNRF65LBAnOB5bCJPQQTRgWBj8YnUSJqD4LzmwPAhFX7RjMhq+FyuiDshuex28nVoZ36GJTwnThjfnnxeifFLKghBIELbCBA7lCPV1VXBTa0WIVDYY8J3IUw4HeEw41m/WbNOzfRBut0qxrHt0NFBSE9g8EzdaalkGzpAhTwMjH52BGVwRW+Ij5o4AUJl4mbVLmzN2kYMVlPcRRI4RDnOOJYITmtmRZzF2f3rMpW2gpCoiNA2gia0mFBgJ7kwg0ocXmQpPMIHTZzOnbvJNX0OEYLWmwFiDCc09BmaLfBNUpWZSc5jDtPGrZo9NvJfsONvg6Fu+JCJ/Ma7IL5xykWnsxEcWaHFwS0Id4n0N5M2/H6gz9393U/kjHDLgyBEEhHaABihD2PuCCVNYREBqWiFSCEqkxlrVoEC3Kk550QYlY+cQfRt8u5q1qFKTIYQHdRkAuqD9scUbJlHA4xb9iHaUxDZHy0V1lL0wQtCYiJC2wSwKF1xqinbHHZypqSg0i6ECtKOK0o+OMugk9NEYuKZW9LSyDphZJSePR8fXQLBPFg0M0fjWnAJuA5jejzTcDWwVbb+OXLgUmozMsh58lEqvKLZFEJ/MfrgBSFREaFtgrKyMjUXbaytWRT2rVu3os5dutZZ1EIocFGN0psL4mCeIeZFtY4cTB413jXyqAnd1QftT1Pguj1rNpBz/abIx7vm8zshaF/M0NIJc+YGwrjmCI6hrY/bbifH4WNVv7FpqxbXHuUwlYIQDiK0TeDz+ihSkW+CBU3HODNEV/pqQwP9symF+6j2zY/J0jpHDQUJCNKaxc3SoZ2+IQpgCAvOE+CxqueOBc5QLPrmqwpBwMdX/b/4i3MFQt/HEsxMRMGAtO/YVhd9E3eM6y4qIcuMn8kR4wqxIJhFhLYJvD5vzD2OUdjBis3JyaFx48YpiybWFnWzQRXCxVqhzc/SbDrCIccXQmCJgKhn66Nai1VNVhCIuuvFH74HvhttPYKo/K3E02w+433SU6kq4o5QBnwtbVqr5nvtuswBsfWVxT5UqiCYQYS2CTIzM6mV2ZBwEQKFHZoIO3XuzBZZcIP3hQNBMY1WiWAmlLWwCDrPO5mqaqIgJPxsldU4YjDZBvZR/cemwC3AMzgalT44HqlmV7Oi5iPnSVOoJkrzwKIiUt25IzmOHKddmxnxxy5IV2MRhARDhLYJnA4HtWnTViscYwiaq4sKC8lhj/1k880JGwuTZcU6ouoq1fRqBmiypVMH1aoQefR8BGsZXrum8xXbsmUV2j1EOi/CMg3SOrW2ydU/RQdfWormbGX6Xi3kXbeZ7PlFXDk1X6kShFghQtsEeM09USlwm8bGFm1HtmgxTjHWIt+cwLAe34q1ajIBs10AFk5vW4/O+lqk0UQAfcfo4wzqyZZXak3gEcaHPKaE1uTVYDezM+yECFIJfepmLgnvB7wZvLv2kg3xmuV1ERIQEdoAxK1+LAIbNr6qGjX9G5rjzfQ/otC29u5OLsywE01gdQXTWsGWrHfjVnLAojXTlGoSHMm2t4B8hfv45s0eF8OfojOG1sDjZQu+dzfNgS3Ae6A9V174r3dPgda8Lu+OkGCI0AZAXtkkBoUuhomYfIiwZu1D+1O1PUoetQYQByx8vkBCor7n+/Cs2UgpEbZoIVH2nXvIu5vF1kQiqT1YBIMN/B8UfL9otvf27knW9m34mejbA8I71nDFKkB6CkI8EKFtArzwiHUsJCdpm7aRa8HyYHyhyNKmtRbcIor4WGQtWRl8HptukTVO/e8jLyF8RI9bncNMEmEfS2Y6+aI0hlahX4g1m9MnNaVuvSlQGUF0K/en0ykTEyQESFNBiDUitEKzxbt7r/4pMBAxJWToG4xmQc2ioGapmTJBE1tT8w3zlXGlz8eiGFH4sNpk+Cbh/W2w+Lt10jdEEVjNaanaczFppfpq3fp0iGpN/ysI8UeEtgkwzCZd5oNNWnyl5coiMiObyqrr2pE8g/qoWWSiClvMlpRUPiefx5SXLO+Dfss6EYkQOCa8mU3XK3wqrrAlqk3r2sW42Wq2jBuuWf0BWhiU1Y9nhibnEj2NgmnGEIQoI0IbgJrq6AVzF6JHaqqTPL+t1tfMgSASvlY50bWFlLXMos7Xp4msybMhYAW8akGkLhABWYpL9RUz8PXiuiM94XtD0E8LQe/YXhNREy0M2E/FO168go1hNB/rXwhCAiBC2xT8wte6XKZedCGxSHO7yP3LEn3NBCjP4U2bHl2P2jrQNKqE1kze0sNxIgxjJPMiDspWYDBY4C0d5T5s9b7BksVYWqSRieZ1tEJ4i4rJ8+tScgYzO5IgxAAR2iZAoZadHczAeSFRcK/fqk2NZxZYRLy/L1ZBQlgYMALUVCWOxQZDcLwff0dpsCgjpLWZXg/Vzphrvqkc51UVhBgUG7Bq8UxMirpKElja1dXkRZeBICQQIrRNAHmNR8AKYFguESpTWxwqxrHZZ4e0xsMeOZjc0W4WNUC8YzMiC7Ab+lMrK5XfQKSwYnq5ikp9zSQmPKUjATz+3e1yyTZ0AHnrJqZvCjxAFmbM3Yv5daVyLCQQIrQBiIfQoZApLCzgCroMVQiFjPRUqn3pPfJVVZsTBYgXF8y24QPJkpKib4weiFLl6tiWbMceRj5EfDJzjdgFYqutRQQfW39IH1M5DP2e6MOecqjymo46fFHWbp3I2r8XW6kstIHSiBPGyta+e+5isv36GzliVWESBBOI0CYYakwgL2WlZeSM1lRkzRwIrI/TzzRomuU0t0Zjxh5/QDOcTrLkZLN4ekyJiPqR200+BGWIEN59QThC4RK5QmJB1CwzFYOw4QoAi6Wa5chMGil4H0+wDl6CEH1EaAOAprpYLja2HNRn/utFyD0haLz5heQzO/MLAwtTBWJIS4uoxdgkDq5EwfHKY/KMfC8qLjH6H/GTCFyo8tINBjgmRTn8Yn3Q+ovnguFEZsfSwvL2lZRxhSSI8cGCEGUSV2jNvlhRxvQLHkGsXKiWlZbSwoUL43L+ZMbKYmDZskOzaM0ILcSjrIIcJx+l+gRjk958TvzvRIuFyfNx5Qsii1CM2m/Cv07PohX6JzPggnlR1xwb3G4P+SaM1KYUhPd/IPDsUhzk3bSNrBgfLAgJgiW/oDgWJUtIpKY4yR7NuKomWLxoAe3ZvYfLGC5kYoiDLZ7hI0ZQu3bt9S2CGXwlpVT74D/I891P5vpbIWBs2aU+cgvVnn4cuWPUioB87fhiBtXc8QRZWuWwGd70eX1o3i4uI8elZ5L31iv5OsOLe4xxxq4JZ5APAsZpEDB3o8+TrUvnq09RdfvYTR2JYI+eq+8hN1cKLFweNAWuCc3NPhboFH6e1hMmx/y9FZKb6ppaVcGLNAkntLDm0tD0ty2PvNNnkzdvj1ZTjSfxOr2UEUHjrXWTd/susrDgYtgKJgpoEhY8794iSn/uIaqZOjGmQuv8aiZV3foYWXNbsZoEeLn5XrzFpZR26+Xk+eO5VBPmxPTZWelUefSFasYbCxydAsGWrCU9nRyv/4Wq28TK8idKT08lzxV3U+3chWRNTQ1YFqg40hDXzh3I1ra1vEOCaRCpzXroSLKNGUbuju2pJiszYvk8cYSWr8JWW0uO31aS+++vqGYyX3kFERec8RRanFr5esb6EriAMO0RKmggsViQjCnosIrH1lQa4kWy5mSR4+n7qaZ/Lzj2xgQbW6jO31ZRLVu0CIMY0PLi/RFeMPW6i8l7zcVqruJwyExxUPWxfKyifWSxBhBavjYfVwTsk8YQPXgjuVhwY/U6ONlCtb3wFtW88ZFydGosneo/Z3VteHGN5uZYXayQvOj5ypjswz56CPmuvIBc3buoylu4JIzQWl1ucvwwh9zPvaVCzeGF0mqn+Db8GxWaOfUqY/gESxbhblFVQUXJb5UFeayGK3eTx5PvgZuoFhYTMlyMsltKVRXRvX+j2p8WkDUt5YB7OAgILVc+Uy4/j7w3/YFqwxVat5uqT7uCvPtK1ET0TWJD83oppTx6C9WecjT0LjZphPTg55G+Yg3V3PmU5rzlp5nbeL51f/l3dYJs/BWEAKh8o31Q+ds6aijRrVeQu1tnzlnhEX9nKL1wSVm/iTwvvE1UpL34SmTV91j4H1lkaWqpB/JNQJE14J8ivynHJOzWxK6RxoLp5lQ/sonmatwiW55q3G1VtbYeBvDMVv3Cpu6Xd1Ke2VzbhyjHLI20EyGdjC4Af10BB4gs/tYX1/p5RBZZmliMXKNZsBbyLFhG1pfeIacZR7wAxF9o+aZS7VyAfP49eXfsVgUkttV7VQQhKPi1Ufmn/l9/oFD2OWxkGTWEKINFr34BHQsgshD4xi6wAUpAKqv0QBP6xhBQP8UsN8H0R6PZNoZDexT6PdoG9SXq3ll99teMZ/Z5C4IZVA5DPnM4qPbLmZS6Zbv27oVB/IWWUR3OeDuMZiGsC0KIGK9Ew78H4faSrUcXokljwm6KDQ2uRdv5FTTTMYx3goXONX8J2bfmBW7ubQIHi7v3x/nkVUOgTByHE9DrY1GO4dCe+lTys7Efc5jyfPb3LE0/b0EwCyxcLHCWdIU/D3RCCK1CxFWIKAGKXb2GaklNJUtOVlyyn6ol4/z6eiDw0quuFbZqw6lgY6wxFexTns6ma+q8nyXVxHCpKODhioitVTbXCZq6VuO7MBJGEBqCciECw30SRmhNDTEQhAigNNVQVswOE6sZexpQXV1L7t0FKsiCKZ3XrxmRrMJFa0XSlwBgDzQbVxeXsTaHf+6ggchnZXJppZURga9YECIE8l6A8dtmSAihRcuZr01r1TQlL5EQTZRo4C8EdmBv8l13CfliFeO4PixwPs74jivOI2vnDuZrzbBAw2zKwlAdNW7XVLMxn6+iilKmHU10yCB13TGHL8EzZhh5z5/GzypDe37aN4IQNZDVMSeyF06LYZIQQutCDf3I8WTt0jFwgAFBCAcWDjV2lit29tuvIvfwgVQdgT6YoIGA8f+2Hl2DC8WI38HrWNVOQ3xXWDh9bE2rYwUCu6CJuW0uWWM2ocCB4DarUCk4/zRy/uEcwrR5amSC/r0gRBLkK0RiQ753HHM4VXcIPxJaQggtcPfuTvYLT9NuCDeJpmT+G+4NCi2PujzD2ajuM5yHYMVCVFksrPwC2Uewhcaf9zv2xx5tgDxfl6l8zvvgejHnKizSUOBD+Kpq+IVDOujbmgSJyP+if7bJPtIYkJZK9pOmkGXYAG0WI4g+yon64o/0kTJDCBKVZ5CP4JCLCT+4nLD170W+M44jjzP8puOECsFo5/t0fD6Dah76p1Zjd/BLhCACegETL7xcqGGOWL4IbUMMgeMKZvIRggQvTq1Li32LZ1fj5k1e7eU5fCyl3vwHqqhgyzDOZGWlU/XpV5Jn/RayBOorhojwvTjOO4U8l51D7hCatOD85Fy3ibyPPEOeDXzOQFGhuOBBoAyEfnT//iyqRaS2OIIQram786n2X6+Tb/4S8paUk4UrKmgVUIUlKhBxctoSkhRDZDGJBUKbumrJPqgv2f58E9X0663lqzBJuFjHmLDZ8dMvKgqMd3cBuWb9on0RgZsNlbLSEioqLOIyB81VsbsOyHpqWhrltmnLFXc0PsSvspFUIK/ws3IM6acGnVs6cPpNmUAWTksaPpBqunYyEyIiJmRnZ1DVaSy06zarSkFT4IXHPuhisT99H1W3C65JC7nHpsdYrubKrHJADORYBaEtLqX0u68h10Wnx11ojTq3na16+/I15Nuxi3wF+8gzc54SW8uIIeSeu0ibzi+OZYaQZHBesXZqT/YJI8mayhbs8EFUhYhQEcpDCSe0AHOy4mVCFBzP1p361vhcJiyALZs20CMPPUStcnLIE6hgiiAI29G3X186/6JLKCc7B9V5/RshMBZydOYXB3OTpjjI1TZXWYxoKNFaJxKDNLa+vLc+Sq4f56s8j+tuEq5wWXt0Idtf7qYa1XekbzcBjqyE9usfqfrhZ7TzIUGaAN9iWFHqgzdR9dRJ5Am1yTrC4L1ExVf1H9fUkKNwHzZSTUYGeVl8VZNynMoMIQnhrILIZ9auHbWxs1xGeAO8G8GQkEJbhyoV8WLHT2DwQq9YtoSuv+Yays3NjWkhjQpHdlYW3f/wI9SjZ299q2AOzjuosKEwVquxbIswD8Qu7bvZVPPUC0ToO1Xq1wR8P9bunVlo76KaTh2CqnEbQuv48geqefRZ7a0K8Hs1mcDQ/mR96i6qxnR+CYhyoDSes8cbkeFPQgsE7x6MmUDvYAjouTNBwU2j34oLh7gt6P9x2NXi5qI6lovL56UKVw3l7dmtrkUNSWl4fbI0snC+4RcGQqQWPUslFrg2vkxMKBBMZRJDgZSndLB3xeeDRVpTq6+bAKewcf6PwFjCaIGwjHXPWZUZ/vKDLLIEWFC+RkFkQWILbQKAcmbg4KE0adIkqqmp4ecQnQfhD1jP1VXVlJ+/V63H8txCLNCep5r43fSz5RzJYgnPY5U5odRmwa4s0GpiArPg+BDZjDiMNRaEZoIIrQlSUlIop1WruPTtuVwuWrNqpb4mNEcswUxowLrng2ct5mpW5rD5ypdqZoYlXFaubzEB/wZ9VlLJE4TQEaE1CQQPqMIqhsDhIy9vlxR0zRkErDDp6Ib8592VT9Z5SyjowJGcl1JKSsnz069oLgncl4k8h4WFNra5XhCaFyK0AUDB5mIr4KhjjqHs7Gx9a+yAwO7csYM2bVirbxGaG/UrUYEqcnX7etgyDaXSx79RAsvHCVR5U9eCRSxaQQgLEdoAGAXMsOHDlcdmSIVbGOD8sKaXLFmibxGaG9Xp6WQfPlA59QQWNOQ/XlRs5BDyIvKvV5sCLBAWPj5ivVrGHEI1EZjBRBBaKiK0JkG55HQ4Y96EBquiuqqKdu/aRQ4IvdDs8KQ4ydKpvbIyA6IyIEtgba02/C1YMPtOML4GTr627p1IyWysM78gNBNEaE1iszmoe48ecWlCszsctH7dWtrFYoswgkIzAxUoFclIXw8EZ0FveRX5jCnrzPwONUVePKVlmjOVGXx8Igx5yEjX/KNjn/UFoVkgQmsSu91OXbt11ddiCxyiivcV0+7du/QtQrMCfaDBxOfFTDZFxURlZfoGExhNxXl7Nc9js6Jp1efjFJEVhJARoTUJIgz1HzCQHGxdxtqqxfn27t1LGzesrysvheaDil6FGUPMZiu2Mt2LV5B9W56WF838jvez83m8cxapOOKmZizCofl38WjFEYTmhAitSVDY9OzVm2xs2SI0YixBPy3OuWtnHnm9HrUuNCNYADErDfpczTxaJXy1LnLy70xrIO/ocNjIhv1dnibFE/mrLo9FMN6rILRURGiDJMXpjIvQoWDctm0rlZUG0VwoJAXITt72uWRJTzUnnPgB7+jTx3abBtlWOUI1nX+R17Cw3JKFr8ujpqDTvxQEIWhEaIOge4+eNGLUSBWKMR7s2L6dSkuLVSEoNB8wI5R3cD+ydmjDKqdvNIGvKvj5dJUjlJn8o/axkO3QUeRq24YsIrSCEDIitEGQmppKWZlZcbFocc6Kigpa+Ks2P288rkGIInb00QbxOlrZ4iwq1VfMoYYEVfOiRNRk/rHb1cTqsG4FQQgNEdogcLs9aohPrPtoDTDBwOZNm7jsk0g9zQ4M71ETv5t9rrxfZRCTA4Ca2iCbm32qORvXJdlNEEJHhDZIRo8ZUxf3ONZY2bLYuGEDFRYUikXbzLCksEWLMatmwLNPTaGaNz5mq7ZE39gEcGji/2u/nU3uleu12MqBsg+UFfsY0w0G06YtCMIBiNAGSUZmFg0ePDguM/nAit25cyd98vEHYtE2N1Qriflnisfv2Z1PWakm5om1WsjhtFO63Uq+/CJzeQdizv9LLhOE8BGhDZLMrBwaN2E81aK/Kw54PB7auX07ecxG9xGSArSR+LIygmipsKi+U20CeJPg0BizGwDshgUT0rv4erwS51gQwkKENghQCMKSHTtuArVv375uWyxBlCh4Hxftk+bj5oSXn6vj1GPIV1mlLFDTYAJ4k/hq4AilrzQF8hULuLV3d7KOH0FeyWeCEBYitEFgNLl17d6DevbqBZsiLk24KPbSUjHmUhr2mg38LC05WXqACJPPlX/jLTU5iTuLpa+yUuVZU0BcEXoxI0OdRxCE0BGhDQHM4nPIiBFkscVeaGHRbt2yhb775mvyYE5SodmgCa3Zvn8WQs57PsQ8NoGPLVRfaQUyENa0jU3iI6vTQZbMNH1dEIRQEaENAcSmbde+A9mssR9mg+Zip9NJixYupJogmg2FJMCYwcdMnsJ+djt5FiwjhxLPxkEete8rJs+vS9lKNeFxDLAPHLRg1QqCEBYitCGAgqtb9x6UnZ0Tl35S9BPv2LGDCgry9S1Cc0DNkuM1N6G7ynd2G3l+XkgOFcC4cZTQFpeSa+5iPkcKfqx/EwDM3BOnMeOC0JwQoQ0BFHKdOnWiIcOGkqvWFXOrFuwrKqKffvxBC0YvNANY/BAYol2u3k/bNHV9rXZ+hY15aZsCnsPY15Q5y8BKbt2KfDKpgCCEjQhtiKSmpat+Whsm7Y4xEHq3202rV60ih4omJCQ7MDIr09Mp9fdnkddUDGNdAFlkfVzZC4QWESqISllaCtlOmUrV8FQWBCEsRGhDABYslmGHjKDcNm1iHrwC58a8uGvWrKFf5s/jdf0LIbnBuFh4+UJ1zQ7x4bznM9FX76vifXB8kwYq/BAsuBZBEMJGhDZEIHadOnWhgQMHKgszHlRXVdE3X31JbmWtxOcahEhiIWvr4Ib4KG/ifU2EYUTe9LEYwzvZhtYPs0rLlcncbH1FEIRwEKENCx8dceQRqhk31kDc7XY7LVu2jHbs2K7KUyH50azIIB4mW7SWmhpV8fMLtsPqraxiK5U/mz00hDY9XV8RBCEcRGjDAOLWga3azp0761tiC8S2vKyM5s+dy2WphMlrFqTpXsEmDFrs4mVL1bJoBdmb8A52VlaT58uZRNmZSnRNgYNjuJEgCGEjQhsiEDn0zaL5ePCQoWS1xt4pClYMAlisWrWSqoKdMk1IOJS2Yl5aeBGbsTxhrXq4goWwjY0IM3ax8D5oXjY9VAfn9vrI4hRHO0GIBCK0YQChc6akUMfOnVjwNAepWAKhx7J29WravGmj2hav/mIhfDz8LGt6dSXnsUdonsSB8pPxrN0szE0M8fEZkwKYzRs2K6X84VwqqzDj/SwIQiBEaEMEoooF3r8TJx1OOa1a6d/EDkPYy0pLacEv82RC+GaA1+kkS2a6eVFkfK5aFtom/ATgLGe2yRhwFrK2aSWVNkGIECK0YYLCqEvXrtSvf/84Tghvo2+/+ZY2rFsrQpvkWDAu2uinNUtllTYzTyO/gSOUD0IbxDEtuTn6J0EQwkWENkwgbKmpaTRu3DjyeryqzzTW2FhoC/Lzacb30xvrqhOSCEsqC20wnsdoGm6k6Vhpq4u/D+JwnKnJAscpQRAigghtBEA/6bBDRlL/gQPU51iDc2ZmZdGc2bPr+mqFJMbhMG98+izkWbeZ7IX7lEA2xMYHsqzlPAFnuSDypiVdZu0RhEghQhshMJvPoRMnxq3pFk3YhYWFtHzZb/oWIRnBc/Q5bNqY1wBgX+zl3b6LHOUVfvOeFYq9bpOKDKWaj83AP/E6HfqKIAjhIkIbAVDAocl48tSjKIsty3gy5+efqaKiTF8TkgoWRbfHS+4O7ciCgP4QySbQhJX3sdnYsG1EmFlcLRar2tdMJRDntPbsShVxGK4mCM0VEdoIkpWVQz179zZVoEUFLiTXrllDK5cvi981COHBz802pB9Zc3PM97cjxGIjYTh9LNzquwCibWDh/WxD+3NmljjHghApRGgjBCyBlNRUGjJkiGnrIdKgKK2traU3X3+dPJ74eEALESAtTc01Gwy+cvTBIgcYiw7Cg1YHMwOPjywZfP44OPUJQnNF3qYIAWFF7OFxEyZSx06dAjb7RQt4IK9jq/bHGd+rIBpCEqFXzixOB1k4L5m1QtE87Css1vZvoLMIfOErr+BP5vICDmFJT+VLkaJBECKFvE0RBGLbvUcPGjd+vLIsQawFF+dDtKpPPv5YDfnRzh/baxDCBILLFmWj/a718PEuPrZY3d//TFYVAQq/2f87S95ucq9YG1wOcDrrH0IQhDARoY0wDoeTjj7mWMrOid+Afzhmbdu6lRYvWqBvEZIJZc2a9Pq1QBEhsBVVlI5AFwfqLKVxRQvNyiY0W4ePiHG80nQsCBFD3qYIAwuyXYeONGDAALUejwAWuAaMrZ0xfToV7yviLWKeJBO1VdXkgXha2KpVLRKB4H3cbv734H01JylzqF/bLFTr1mJoC4IQGURoo0BaWjpNO/0MyomjVQuWLV1KH77/XxUDWUgOLF6Wy9Y5ZDtqohpLa7GZfEUb0+Ma80KLrg9bt85EIwaRTyxaQYgY8jZFGBRWsEIGDBhEgwYPqdsWDxx2O330wYe0fu3qIJoOhXjigwNbipOsbXN5jT+benCc5zAVXnWNvr4f5Y1sFpwqLZUs2fEdCy4IzQ0R2iiBPtpJhx+uRDdeQgsjx8MF8I8/ziQ3hnkIyQGsSfS3KkzkHc5fFjQdFxVr6/Wam31l5fonE8CzCq0fmNhAEISIIUIbBQxhHTpsGPXo2VOJXTzEFiKfmppKP0z/nrZs2mjOOBLiC0STn5NyiArmeXlYXCsOtGhxHM/qDfqaCXA+Pq86tyAIEUOENorktmlHJ5x4khI8c04t0aG0tJS+/forcrnEqk0W0DerYhMHUztqsGsaV7JcM+YeYOEGQh3CLsWCIEQSeaOiCKzY41lou3XvHjehhfcozv3rr7/Q9m2b1TUJiQ2elzcjg6zt25AvjCZ/Jwsmgl806ijVAJzX0rUTeW1i0QpCJBGhjSKq4LLa6IgjJ5PT6YyLyBnn3LtnL/3tqaeoUiYcSGxYFH0eH3l6dCHbuEPIV1UdnFVbDy+co1QFz4TSwruZK2WWw8eSO8Wp/04QhEggQhtFIHJYDp88hTp16aJvjQ8pKSm0cvlyNWdtPMb2CmbBaFgWOUNbw9G70grt96Z0GjvxgiFF2gZBECKElLhRBlZt27btaPSYMZqFGwerFsAhK6dVK3rrjddp3ZpV+lYh4UD+QAUtPU0L7u8LPXCE8kJWvzeR53BaVmVLZroSW3UdgiBEBBHaKANhhTV52OFHqskG4hlxB+cuKiqib7760vwk4EJ8sNm0/lU1I09o+PYUBPV7VRHkvCoIQmQRoY0BENs+ffvR2HHjyMoFaLxAQQp+mDGDVi7/TX02tgkJiBpmw88nBOsyg63hmufe0MbRmvk5rGicx2EuxrIgCOYRoY0RKMSuuuY66tu3b9zEzWi2rqmpobfeepMqKsrrtgkJCMa0QiVDyi+6QPNiqteVd1ezBTkkXKcgRBoR2hji8fpo2mmnqSAS8RQ4zJu7ZOFimjVT5qxNVNwuN/lGDCZrjy7k8wQ/xEdps9nuAc6LvopKckydSK7WrULTdUEQGkWENkYYwjps+Ajq2q1b3D1/09LT6H/v/pc2rl+rbxESCdWX37k9WXKyQuunrXVp0aLMgLzJwm7t3pl8nC+UeSsIQsQQoY0pPmrVOpdOPf0MssW5rxYFeWFhIX395ZdUW3twMHohzrD4WVlkLYg7HIzQYldefOUV5HNj5h6TLRYIE5qdoc+DK60cghBJRGhjiuZwMmbseOrXv78K9B/PJmSc+5uvv6aff/pRmpATEViXRtzhIPOJr7SMyM1WsZnnimNDoFNTtXVBECKKCG2MgbhlZmXRBRdfEvfhPobIv/T887Rj2zb1WUgcVHB/WLTBdJryI7UhytPqjeTNLySLyS4Kn89LlrQUsWUFIQqI0MaJ4YeMoAmHTohrXy2akLGUlZXR8//6J+0rKlTrQmKAsc4IwYhHEsxzsdptZNmynXz7SnjFpNC6PaqfVp6+IEQeEdo44fX6aMrUYygrOzuuYgurFl7IK1auoM8/+5g/y/COhIDzR2VlDfl6dCFrJhyUgiSYhhKPh+wDelFVVqbydlbKLghCxBChjROwUPr2H0BnnHkmVVRU1DXjxgNci4ctmg/e+x+VleqThwvxRYVBJEo97xTMd0eWYLoY+Hn6WDxV32sgeB9fjYtsA/uSY8JI7TdxzIuC0BwRoY0TEFYsEycdTu3bt49rX219brjmGiosyNfXhLiTmhK08KlmYAzvMf0ztmARqMJwvBIEIaKI0MaZLt260SW//71qPjbEN17g3Nu2baMvPvuUXK5afasQTyy5rfi58GsaTGsu+nUrKk07QqGZ2oIgKpgeTxCEiCNCG2c8Hi+dcPI0mjJ1KoubS1m28XJIwrnT0tLoow/ep++/+yauoi9oWLIyVDOyL5hHgcnia7iiBIEOhDou5zeIrDxuQYgKIrQJAMR22mmnU89ePess23iA80LkIbifffIJ5e3cLmIbZywYqqOPhQ1Y/eLdkH8cm7eTe+5itlJT+EcBfsVfYw+LOMEJQtQQoU0Q+vTtT8ccexxVVVXFXdxw/h3bt9NTjz8mQ37iTJXLQ/bxI7Rp8/RtgVCOUyadoTCEyNqhHdHoYeSqFY9jQYgGIrQJgpcLuBNPnkaDBg3iMtITd7GFZbRxwwZ67eWXqKa6OmGctVoUnCdcnO6WLh1NiaZh8moVI17MiCbvY8lKJ1+n9uSRZywIUUGENkGAsKampdPNt91OvXr30gvL+IHzQ2yXLF5ECxf8oj4LsYbFlfOFJc1saERNXH3KMtU3mcHK1nKGMVY3vhU8QWiOSOmZQEDcevTqQ+dfdAllZmbG3aqFZV1SWkrvvv0m7crbqa4v3hWAFgUeP/JAdqZ5/YNVWlVl/jlhN0SSyuJzANFZQYg4IrQJBgrI8RMm0ulnn01ulyuuYqusWL6eHdt30H9ZbKsqK/VvhJgBizYzHR+09SZA36yvsorcq9drgmtGbHkfOEKpWYIEQYgKIrQJBoQVy6RJh9PY8ePjKrSGVYS/P82aRa//+xUR21jDj9/iTNFXmsBqUdG97NU1ZPl1ORH/haNTQJC9pFtAEKKKvGEJCMS1c5eudMvtd1CHDh3qBC+e4BrmzZlL6/WJ4hPhmloGFvJhVp1A/bSokPFiS3FqY2+JLdUAlTQf2o15H0wu7w2wryAIoSNCm6BAyDIysuiU005X/bXxBl7H+/YV0f/99SlavXqleCHHCOSDmvZtyDqgl76lEfSKj7JiEbDCLKks4hNHU7XeTSAIQuQRoU1QVBMyF35Tjjqaxo2foIJaxLMZGaDPtrCgkP7y2KO0Ytlv+lYh6tjtZHU49JVGQFALp4Ms0EoWTM492vYmwD7IY1aIrVUCVghCtBChTWAgrOnp6XThJZdSn759lBewsT0ewLrCuYuKiuirL7+g8vIytU2akaOLikGMKE+Nwc8E89Z6dueTp6iYvCVlapspsB+8mhGBKj7ZShCaPSK0CQ6sjnbt2tMjTzxJffv2VdviKWwQWsyl+8v8+fTuW28o5ygR2igDa7apgP82fiZ7Csj99qfk/s/75Nmyg3x62EYzqP5ftb8orSBEAxHaRAcWBy+Zmdl03AknUnpGhhK7eKGJqo+8bF1//dVX9MZ/XqWiwgLtSyE6YPiNk8W2kceO5mI0AVtYYC1L12qfzdR99Lyl4ikLghA15A1LEiCuxxx/Ip2OieLLKxIiUhPE9lsW27lzflbOUeIgFR3UdHdIWxbPxloPfBDX4lKyFBZpAhqAuuPwcTVRjl/lTRCaOyK0SQKE1maz0eSpR9GIUSP1rfFFiSsX2N998zWtXbNawjRGCReEc+pEorTURq1PCz8H6KXSzEbEuD7ITz6Pm2yjhlJNt06q0iQIQnSQkjGJQOHYvn1HuuFPt9Cw4cPVeryBZbRt61Z65um/05LFC/WtQiRR1iccllRFppFnznkB36jFdL7g32DMrelYyoIghIIIbZKBQrRL1250wcWXULv27ckaZ7E1CvWdO3bQqy++oKbVE6JAKothpJ81BBx9v1gEQYgaIrRJCJpoe/TsRUdMnkxWW3zHP9bvM9y2bRu98Owz4hwVBVS8Y3gGR1Rsfcrj2JKSEnkRFwShDhHaJARWZGpqGp11zu/o4kt/z5/R9BffghKCi+uaN3cuPfuPp8WyjTDK6ziSQFhRR8LQIZlQQBCiightkgJRS2FL5KRTTqUTTjqJrVyL2hZPILawtufM+Zne+Pdr5HLViidyhPDabZo4Rgq0ROB4Xs8BrRKCIEQeEdokBl7IDqeTTjx5GvXp21cbBhJfrVXCigrAzB9mKLGtrqoSsY0AtRYrWUcMJl+tKyKCC2m1ZKSTp3NHcgcTG1kQhKARoW0GtO/Qka6/6Wbq06cP/EgTwrKFuH715ef05uv/ptraWrGawiUtjRyTRpOvuiYyli0/HwitbSSLtzybpCHe77YQGiK0zYSevXrT3fc/SD179tS3xB+3y02ffvwRvfT8s9KMHC5orEhP41oMp2GkylqrlY8Z//59wTybNqyj/L279DUhWRChbQaglgurpE2btnQdW7a92bJNBHBNTqeTZs74nt56/T9UXV1tbjJywT852USeCKYfgl9kZ+krQqKzfu1qmjtnDmVlt5JWiCRDhLaZYIht33796aZbb+e/fetexni+lLBiMevQF599Sq+98iJVVFaKZRsiaoiPepaRsED5OIihDCtZSFzU8/bRqpXLaMnixXTciSdRSkqqNCEnGSK0zQjj5evRoyfdzGKblZWlvIATAcyn++Vnn9G/WWxdLpe+VQgGS4qDqLI6MjoLqqrJimMKCc1rL7/AldSXadppZ1BubhsR2SREhLaZYVi2Xbr1oFtuZ7HNzta/iS8+n+GN/AO9/trLVFK8T/9GMAOmJnS1yiHHMYeRr6YWD1r/JgTUby3kOHEK1bgkxnGigfcX73FlRTn9779vU1lpGT36xF8pJTU17pHghNAQoW2G4CXFMmrMeLr73vuoVavE6NNBk7GbrdmvvviC/vrk41QsQS2CwpWZQfYh/fhDBIbjcP7AhAKuSBxLiChohVq5YhndfstNtHPHTrrw0svI4XDo9SMR2mREhLYZA7EdNGQYPfToo8qyxXoiAMlftHAh/eWJx8SyDQKMk8Z0eCoBIwGCYAgJho/WrFpOjz70ILVt25auvv5G1VysdQGJyCYrIrQtgJ69+9Ett96m+myNZql4As9j1NCXL1+uYiNv3LAeWxPC6k5obFaytM7mpIpMOlk6tNU/CfEGDoObN26gV196gW67+WYaMXIU3XHP/aq7RUh+RGhbAKoZeex4uv+hh1QzciJ4/SpRZb1HbORH/vwAzZj+raqvi9g2jeYljLQLv7JkwdR7QtyxcQVqw/q19NQTj9HHH3xIkw4/nP5w+ZV13sWJ0hIlhI4IbQsBL2v/AYPpwYcepjZt2ybGy8t6AWEt3reP/vXPf7LozuaavdZnKILrH3ge+yIxltbtIasM7Yk7mHD/3bdep4ceuJ+2b9tGo8eOoRv+dCu1ap2bMCMGhPCx3X77nQ/qn4UWQOvcNjRkyGBav24dlRQX61vjC0QVzckLfvlF9dl26NCRMjIzpaBpACpH9j0F5JmzUKVZqFUl/NbauSNZL5hGtV6p0MQDu91GK5YtpVdffoE+YisWz/LIyVPoxltuo7S0dMn7zQwR2hZI23btaeSoUbRm9SoqKiqKSDNkuEBEENx+08aNtGjhAureozt16tRZ/1YAyspvlU22VRvIu32XNolEsOBZu9yUeulZVDFkgL5RiCXlZaX0v/++Q6//+zXasGGDEtWJhx1Gf7ziKsrOzlHvgtC8kGpTCwMvMQrsjixiN992h4qNrMbmxfndViLCoP94965d9I+//ZXmzZklExI0wOrxkM/tCa9yxD/FWFwp0GML8vHOHVvpb089Qf9+9VUqKSlRDuRjxo2lG2++jVrn5sozaaaI0LZADLHt0rUbXXP9jdSzV08uBbTt8X7RcV1YCgoK6KnHn6RXXnyOigoL9G8FSk8jS3oKEkrfEAL8W2ubVvqKEAsKCvLps48/pPvuvpvmz59P6enpZLfb6ZJLL6V77v8zpabC8UmK4+aKNB23UAyxbdu2HY0YOZoqK8to65Yt+rfxR7s+L23csIHWr1tLHTq0pw4dOymLN96VgXhixz+zfyXv5u1kwaQAwYK0c7vJcfJR5OrVTd8oRIuUFActXbKIXnv5Rfrmq6+oqrJSWbGtWreiP/zxcjruxJPJ4XC26DzdEpAqVAsGLzeWTp07s2V7E515zjl12+ONcW1g2dKl9OB999JPM2fUeSW3VJAkFhvkNpxnxGmrpscTogEqsGgiKikuUt7Ed91+Oy1csFD7khk6dCi99Np/6JjjT1IiKzR/xKIVFDYuvAcOHKQGyG/ZvFkF/tcKjPgDZxFcy6JFC6kgfy917tyJclq11r9tWdjQxD93EXnWb0bCBC236onyP85Tj6baTu3VNiFyoHK4K2+nGhf+n1deUTPuIP9iwbt1/Akn0u//+Ee2aNvovxBaApb8guLEKE2FuAMxg8W4aeMGeuXFF2jVihVkczgSYg5ZFGC4Pvxt3bo1XXTppXTk5KPIztfXkrD5vOT4aia5nnmdqLJKV07zIA1tA3qT9ZFbqUaENqKgW2PRgvnKm3jL5i1KXA2cnE9vZst23IRJqm9WaFmIRSvUoTXXWlW/bb/+A2j9+nVUVFioticSmEB+/rx5VFRUQN27dSMnWwqIrpNo1xlxVAuDhezFpeSbs4gTolbbHiS2fj3Je/Qk8qZKeL9wQY6rra2hgr176B9//yu9/957tG/fPiWyRuWwY6dOdPmVV9GkwydzPpX40i0RsWgFv6CA2L0rj779+kvlxFFZWal/k1hgsoSJkybRWeecq5yloEXNVnD55nBvKavWkfvuv5KvaF/wFq3XR44pE8h71zXkykjXtwrm0Co66hM/C6/XQ8uW/kY/zviefpk//6B3BPGLx4wdS1ddex116dKNvMicQotELFrBLyjQs7KyacjQYWwxOmjJokWqacwaiqdrFKmtqaHNmzbRst+WkNvtov4DBzZfoeX7wr05yirI+/3P2iTwwcJlvX1IX/IdNoa80oQZAtozcNVW03vvvk1//+tfacf27cqnwch3sGbxrhxz3LF0xdXXULv2HdV2oeUiQis0CQqNQYOHUv8B/WlfURHl781PSCFDc90v8+ZRcfE+6ty5M6WmpSkHr+aGEtrSMvJMh9CyBRWskcRWlW1of/IdOoq80owZHJzWhYUF9L9336L/vPYq/ThzJqWlpirrFuDZGO/G1dddR5f98QqupKYl5PsixBZpOhZMs3XLZnrx+Wdp04YNqpkMBYhRyCQCRoGWk5NDh06aRJOnTKWBg4fw9uYzig33mLp5G7lufoR8hcXk83hMF+TqWXl95Dz9GPLc9EdyOcSibQyklZGu6P/P27mDFv76K333zdcqbCK+sdntB4gsQogeOnEinXTKNBozbjx5IjH5g9AsEKEVTAPv49LSElq44Fd64dl/UVVVlXLuSCSxNVCCxNbG0cccS1defTWb5jbyNocA+m4W1h27yPb3V8j72yqyBJP2rA6+FCdZLjyDPL87hQge2yZFuqWyft0a+vGH79l6/VFNwtFYfkdT8ZChQ+n+Pz9MmZlZQTc0CM0bEVrBNEYtH0OAfp0/jz756ENas3p13XeJBq61ttalxt2edfY5NO7QSWqKwPpWSNLB125ny8n+zqdU8+K7ZHXYlJVqChYJS6sssj16G9UO6Y9DKfEVNJAv0FVSU1OtIpJN//YrmjH9e16vUZU2fI80Q8Qy5B0s2JadnU1XXnstHXHkVLUuCA0RoRWCBoUJCpmdO7YrhxA4ShXvK1aOUolW0OA6lRMXF6CD2eKYPHmKatbDECZ4gSad2PI127G89znV/PN1sjrtwQlt62yyPXkn1fbvLVZXA2qqq2j1qpU0a+ZMWrhwARXk57PR76gT1IZUVlbRkVMm00knT6PhI0bK+FihUURohZBB4YMxhHN+nk0ff/A/Wrt2HaWnpSlhS0SMAhMhJ4cNG0bXXn8D2RzOJGtSZpHlAt3+8bdU88izZE11ot1S/y4AdhbaNq3J/n/3UU33LglXKYoHVquFUlOc9NWXX9BHH3ygoqKBxsTV2I4oT+f+7nd0+lnncP1FBFZoGhFaISwgqih8EBrxIxZbjCfM37tXbWussIon6pr4mquqa6hX7140fvx4LizPppTUNErlJRkCCmDScMfn31P1n/9JVhYJ80JrJ2u7XLL980EVFaqlCi3ybEVFOe3ds0sFmNiVl0dbtmwmj9vTaB9sXV7m/4ePOITOOPtsGj1mfItNQyE4RGiFiIG+qzWrVtK7b79Fvy1ZorYlotgCTJrucbvJxn+79uhOvXv3oYGDBtOhh07kstSi+nIBrl01LvN9JAoQWueXP1DV/X9nizbVvNA67GRhoXX86yGqbr+/r7olgHzICUWlpaU0Z/ZPqnl4+/ZtVFJcooRXs0oPTA8j76LbAfMid+zYkY474QQ65dTTKTMri38nRadgDhFaIeIgcMSM776hV15+iSorqpQwJHKhDisGQzNAmzZtqF379tRvQH+64qrrqLq6Slm6QIluAggursC5aSt5HnyavBu2ksWMFQ7RqKklxwWnkveK35ELAt2MMZ4VKlIuzo8rVyyj1156SQltfn6+euZGF4fRKtMYiPA0aPBguuCii2nkqDEqLQUhGERohaiAgm7ThnX033ffocWLFpLb5U5YscV1wWoxPqPgxfr4CRNUoXrklCnUf8BAFuF2anvcxZavMaWkjHwstO55i8mC5uNAacvX7SurIOd911HttGPJa+V7aKaCYeX7QtPw7t15tHjhIpo3dw6tXrVKPTcseIZ4zlgafZZITv6qe4/udNgRR9KFF19KLs7DcX/2QlIiQitElaKiQlrF1sSbr79BeTu2k7WRPrBExCiYMzIyqG27dnTMccfT4Vzo4jMK3f3opXKsgNBWVJLvgf8j988LgxPaP99ErpOPIg+2NSPRcKjgGz7atnUrbd2yhb78/DPasGE9VVVWqfCIcCAzk++QPxHWEw5zR04+ko465nj12WrV8q0IrRAKIrRCVDEKp6W/LaYP//eeCpOI2XYMqyJRMa7bKFjxF4V15y5dqG3bNnT+RRdT334D8I36HsSyIE7FUKo7nqDa6bPJmpYWWGj52r35hZT63MNUO+XQpItahLQ18ovR+gCPYfSdbt2yiT547z0VQGXt2rW0e9cuatWqlemmYWB8j1Ceo8eMoRv/dDP17N0H36jtghAOIrRCzKjmgvCzTz6k9evW0rKly+rCOCYDKORRwKO/DgsCGGBmlgEDB1H/AQOoXfsO1LFTZ7Uv7inaogsLzvbv/1Hti+/yGp8rgCCo68/NIfvf76Oafr3qRCsR2Z92WoAIfC4rK6XysjKqZmvT4vNSXl4erVi2lJYtW6asWPSxQ1Ax7ytCI2LdTPpjH/zOqESdc+55NOmII8jpTOHtUjQKkUGEVogRnM3wP5eccDBCIfnhB++ryFKG5WEUemYKyHiC68N9QHAxnhJLhw4dqF///pTbpi2NmzCeWue2Zcu37UGFtSFwkbjHjMoqqrnkFvLu3N20QxRbfr7ySkr5/dnkvvH35Eoga9ZfehhCi3xSUV5O69atoTmzZ1Pezp3Kai0uLlZDtMr5O+xnLMaxzGDsD4u4a7duNO3U02jkqNHUvWdiV0KE5ESEVogpRiEK4J089+ef6MXnnqNStlhsKh6xJrTJUNjhGg3nKHxWVhWLbw0X3kOGDqF+/frRMcedQKPHjKaqalfE7ykjPZVcV95N7l+XquFKbP8dYNmqtK5rovdR6j3XkeuUoxv0L8ceXI+6Nk43Iy8YQEjnz51NNTW1NHvWj7R3zx7atm2bitAED2L+QV23Ayo6DX9vBlivFRUVlMoVpJOnTaPzL7qEMjKz9G8FIfKI0AoxxShgjc8AYe8W/vqL8k5GjFkQSgEaa+rfC6gvHhABWEtt2rah1LR0atMml4YPH07duvdga7cNdWjfgRxOpxpKpDVJe+vSI5h7d27dQb6nXyPv4pXkc9XyFv23OAaOh7+Z6eS44DTy8OI2MxQoRIzrN2iYNgDbYKnCSanWVUPbt25V22ZM/04NvYHQYnyrx+VRn612m/Iiro+RzsZfs6j9+W+r3Fw6cvJkOoKXfv0H8nbt+2COJQjBIEIrxB1YsbAGS4qLaNGCX+mTjz9WnqPoB8V3DQvwZMPn5QIezbd8H04WVwgsmpvbs8iOGDlSjens2LkLC/EwttycSpjRR4hyH7fu7/41keEXmP+mlFeQ7ecFVPvaB+TDRpeLE5V/A5Hq3pmcV55P1X16kJstOfWjCHDgNeHzgcdF8BKjSwDN56tXraB9RYVq26qVK6l43z7VBLydrVVY4rVswar9Dz5U2KAiU11dTe3ataPjjj+ODjtyCvXs2buetS8I0UWEVog79Qs7WBWu2mr6+ssv6MXnn1ffodkQJHuhiOuH4FotVlX4o3KBmWEAhNcInNF/4ACaMGGCmm4tLS2N+vTtR7369FEipHTU7dGOVW+eXXjgZmVlkBff7clXQ3msPbqQh8W2vLxK38s8eA5NWXiw2OtTUJCvwnBieIydl4ULFtCy37ToYBgus3HjRnXNWHCPuFdcP67b2B4pcCykr/HZVVtLp55+Ol117XV8fY66yptYsEKsEKEVEgqjAMRk27vydtCihQvpxx9+UMHe0a+GAhTfR7JgjgfGfRr3YvzFAiHA2E98RiWjfYf21LpVazXbEMjIzKBhw4ar8Z31pcLO+2Zl56jPELJu3bor6zlYVDrz9ZRXlFNRYZHqG4XVCXCd1VXV9PPsWer6AJ4Jmvz3FRWp70FpSamKyIR1LMZzA8bvogHO4fF6yGF3qPHOY8eNo+NPOJG69+il1VIEIQ6I0AoJDQrlosICWrt6FX36yUe0ZvUaZRHBoQVAlIwCvDlRX5SMxQCiVV+4DBCvFzPRKPirvv36U+vc3KCFDc32EHp4/KLJteF5kObYXh/V7OsH/DbY84cCKhboE8f5evTsweJ6Eo0dP14fctX88oeQXIjQCkkDvJR/mP4dffvNN7Rt65a6ZteWBESrofAZYHv971AhaUwAmwLN2Jo4Nd6ka2yv/31T1xYtjAoHHKmGH3IInXf++TRm7HiysUUrCImCCK2QFBiFOJaSkmLazkL706wfaf68uWrSecPKbUwYWiqhCF+ipyHEFRY3nOUwiw7mFh47fgKNYwsWw3Qk0ISQaIjQCkmIlmVdtS7auXM7/fTjTFq1YgUtXrxYiS0WFMahWHNCYmJUGPBM0Yc8cdJEOvzIyTRw0BDVVw1v7VAqFYIQC0RohaTFsHIhqjU11bRh3Rr6Ycb39PNPs9nqLWk23sotHTxjPEEEmMC442uuu5aGDjuEv8DwnP35QBASFRFaoVmB8ZurVq6g3Xl5qml548YNVFZappqWIchYRHgTG4iml5+jMQyqd58+LKzDVSzio44+huxsvQpCMiFCKzRbStmq3bt3D+3dnUefffopFRYW0sb1Gyg9PZ1sdi1CEkRXLKL4grTHguhYHo9btUR06NiRRo4cRT169aIJh05Ufa8Y8mUXJychCRGhFZo9KMRTnA7atm0rLfjlF5o9exZt27JNzQgDi8lALN3YYggsxgejWbh169ZqSFKv3r1p/MSJ1LVrd/U9MJ6NsS4IyYQIrdCiQEFdXVWp5ixdtuw3WrFsmYqtu2P7DtW8rEUs2j9MRsQ38njZck1JTaGsrCxluQ4eMpSXIZTTqrVqJta8x7V9RViF5oAIrdAigYAi+lFFZQW5amto0YIFlJ+/h778/AsqLikht8ulPFwRAhHgsyG6+CsCcDBGuqi0RUsBf0YqYSgOmoOxIL7w0KFD6dgTTqCcnNbUoUNHyszMJKcKtLE/SpYgNCdEaAWhHj6fh5775z+pqKiIBSCDZs+ereY+hQBg0faRV6YxGookAvl36tyFLdbB1J5FFU3DPXthzlfte1Rg8BsRV6E5I0IrCA2orqpSQfPRvJm3YzsV7dtHWzZtouLifbRi+XIqKixUzcxwrsJ+doddzaVrYFhlzU2Q64uhMakAtsHqx/27PW7q1ac3tW3bjkaNGqMmUOjZi9dZbNNS01Tc5frHMNJJEJo7IrSC0ID6AmkIgdF0XFVZwdt8LLL7aP6cn9WE9UuXLKHt27er77EY+6L5FE2lxnyqxvcHgW28D76Ll/AY19sYddeG6+T769Spk+pjhXgefeyxqlk4N7etmm8XUwGm6k3u9e9JRFVoqYjQCoJJGgqhJkw+NYyotqaaVq9eRZvZ8t2ze7cS27179yqrF4v6Hf8ex8ACsE19xqJ/rn/8uu8jRKPH4+04K75XZ8dfXrr36MH7I7qWRd3PmLFjKT09QwnpEVOOUp7COBqGSxkY+9e/D0Fo6YjQCkIEgb7AgsVLBc9mDCGqqa6m8vIy2r17D2/LU7Pi5OFvWblyxkJTNcQJoEkWogaqeHs4QgtBNGY5qg+EsVXrVnweTdjdfM6uXbtQn779KSMjQwk/5pUdNXqMOj8WxBVu176DfoQDMa5RxFUQ/CNCKwhRAgKkrEQIL3+GiCrHKv4PMw9h3eN2qQVA3PLy8mj50qWE2L3r162tE7FQQN9oq9atdQnXhZCXkaPGqFCGuv2qzoEZezCfrSGW2p8DLdP6nwVBMI8IrSDECEN4zeJw2MMSN7d7v3W8H7zu/o/ZUNRFWAUhMojQCkICUV/sIiF0/ixiEVBBiC2NuxkKghBzIILGEgnqHy+SxxUEwTwitIIgCIIQRURoBUEQBCGKiNAKgiAIQhQRoRUEQRCEKCJCKwiCIAhRRIRWEARBEKKICK0gCIIgRBERWkEQBEGIIiK0giAIghBFRGgFQRAEIYqI0AqCIAhCFBGhFQRBEIQoIkIrCIIgCFFEhFYQBEEQoogIrSAIgiBEERFaQRAEQYgiIrSCIAiCEEVEaAVBEAQhiojQCoIgCEIUEaEVBEEQhCgiQisIgiAIUUSEVhAEQRCiiAitIAiCIEQREVpBEARBiCIitIIgCIIQRSz5BcU+/bOQIFRWVtK6dWtpw4b1VFxcTOXl5ZTiTKGcnBzq0rUrDRs2nHJzc/W9w8Pn85HH46HS0lKs6Fsbx2a3U1ZWFlmt8amjFRYW0KpVq2jb1q3qmmtqa9T1ID0GDhhEffv1I4fDoe8dWZBWP/00i/bu3UMTJkykbt266d+EzvLly2j16lXUpUtXmjTpMH1r5EGeWrVqJW3cuJFKS4qpgtfT09Ipm/NUnz59aPDgIZSRkaHvHXlWr17N97qUWrduTUceOYWcTqf+TeTYs2c3/fzzbEpJSaXDDz9CvS+h4vV61btn5p3whzMlhTIzM/W14DFzfqvNRtnZ2XF7FwXziNAmCFVVVfT+++/Rl19+QT/P/olqa2v1b/wzcOBAOmXaaXTqqafRgAED9a3BAQG//vpraPp331FNTbW+NTB4sXNz29DQoUNp1OgxdOaZZ1H//gP0byPPvn376M03X6evOG0WLVqob/VPq1at6JhjjqNzzj2PJk+eom+NDNdfdzX997/vqs8Q9zffejcscXzl5Rfprrvu0NeILrnk9/TXv/2fvhY+LpeLPvroQ/r0k49p1qyZTeYpCN9hLE6nnXo6nXnW2REVwv+++w7deON1SjzAyJGj6ONPPo+osC9cuIDOPedMrcLIdO/Rg2bMmKXyQzDgPbjl5pvos88+Ve9kOAwZMpTeeONt6ta9O1ksFn1r0wR7fryLrVvnqopm7969aczYcTRmzFgaN24cP8MUfS8h3ojQxhkUPv/+96v0z3/8H+3atUtZTWbBy2vjWu2ZZ55Nd9x5d9AW1tP/9zd69NGH9bXQwDVgOemkk+mxx5+ijh076t+ED4Ti2X/9k5577l+qdm8+bSxcAFnY6jyUHn7kMRo+/BB9e+jAWho2dNAB19CuXXv65pvpqlAPhcMPO5TWrFmtr5F6llu37VQWWbh89ukn9Pjjj7IFuyHoPNWvX3+67bY76LTTz9C3hse0U06kefPm6msa1157PT345/DynoHb7aajj55MK1es0LdovPTyq3T66Wfqa+Z4/vln6YH77w0qzZriT3+6he686x7TVme45zfeR7yHl156maq85bZpo38rxAtpc4gjaII884xT6c47bqO8vLygXy7sj0LmvffepRNPOEY1NQfD8hXL9U+hg2tAZeHzzz+jqVOOoKVLf9O/CY+dO3eqAhoVAVi0waWNdk1z587hdDlOCXW44HoaXkN+/l668so/sqVYo28Jjl278vRPGmjC37s3X18LDVzLDTdcS3/4w6UqP4SSp9Btcfnll9E1V18ZVEtHY+zdu1f/tJ9XX31ZNf9HgnfeeesgkQUF+QX6J/P8tmRJ0GnWFDU1weWNcM+P3yLvozx57LFH2LodQW+9+Yb+rRAvRGjjBAqZ006dpvqUIsHu3bvpxRee19fMUV0VfiFaHwjPRRf+TolSOGzatJHT5mTVHBguEApYCH9+8H59S2gYzZ4NwTXec/dd+lpw+C1Qwyhk0dR44QW/o3ffeVvfEh7oyrjg/PNU/244+LvP6upqeuqpx/W10MG1/f1vf9HXDiQUwUJ3SqRA/ylaBWBhmiWS5wdlZWVsVd9A1117ddjPUQgdaTqOA+hHgrW2cuXBtXCDHj160hFHHEk9evaktm3aqm1F+4po7ZrVNG/+PL/WwBlnnEUvvvSKvhYYFKLfffeNvqYxatRoeuihR/W1A/H6vFwQlNGmjZto9uxZNGPG98qibsh5vzufnnnmOX0tOEpKSuiUk49XzjP+6NChIx177HE0cdIk9Tk9PV05SG1Yv4F++OF7vq6fGhXFx594iv74xyv0teCAoJ5w/DH62sE886/n6bzzfqevmaNP7+51fYoGixcvU316oQALFOLoD/SHTpl6FE2ZMpW6de1GOa1aqbTeuWMH/ThrJs34fnqjhTzE4qWXXg1KMOozftxoVXlqCJpTv5/xo3LuC5Wmuj8effQJuuLKq/Q1cxz8TljorLPOpnPOOVdfN4fD6aTBgwYH3Wzr752ED8YFF1ykr+0HjoCl/AwLiwpp6W+/Kae6xvI+wPN/6613pO82DojQxoHrrr2K3nvvv/ragYwePUb16TTlyIOaOppF//qXJ+ssYhRa7777P5p61NFq3Qz+Xuojj5xMH3z4ib7WNIsXL6LfX3qRaqaqD65lxco1qg8zWBpLG7vdTtdddwPd9KdbmnSigSDefdcdtGTJYn3LfuDgM336TBo8ZIi+xTyBhBYepl9+9a3y3jVLJIX27bfepJtuul5fO5CTTz5FVZ6aOi6e4YMP3Ecff/yhvuVA4KSF/r5QaExowdFHH0vv/vd/+lpwoII1YfwYzTvXD5EQWlQubrzpZrrnnvv0LdHF3zt59NHHcBq9r681TkFBvmomRrM8Wrj8cfkVV9Fjjz2hrwmxQpqOY8ycOT83KrKwBD//4uuA3rJ4+eHtCkF8770P6JZbb6fPP/8qKJGNBLB+n33uxYMcPVCrnjnzB33NPI2lDYbr/OvZ5+mee+8P6KkKj0t4tKI1oCHwur333tCaeQMBaxAWZUPhjAXow27Mqvvj5VfSa/9+I6B4d+7cWTkPXXPNdfqWA3ni8ceoqLBQX4sc33//nRoyFQpPP/33RkW2JdK2bTtVEZ01a46qwPjj5ZdeoPnz5+lrQqwQoY0x//zn0/qnAzn++BP4u2eDGgMKL1WI65133k3jxk/Qt8aWww47nAYNHqyv7Wf9unX6J/M0lja3ckUCntVmgRhDXLp06aJv2Q+altEaEA3QdAerMpS+wXB4/fV/q/7xhqCZGNZLME2+f37oEWVBNQTW0n/+85q+Flkef+yRoNNs69Yt9O/XonM9yQ6aq996+106ys9zBE89GX7fuBAcIrQxZP36dfTDjO/1tf1gYP1f/vp/IfeBxZsB/Q8ex1sYhPUDC7ixtBk0aBBdf8NN+pp5kKYPPujfynvj9f/onyIL7uPzzz6NiJezWXDON944+H7QTP7UX/4WUp565NEnKDX14CFGOA88oyMNmuU/+eQjfc0cTz7xeEQ8opsrqIQ/++zz1L59B33LflDZXBGBEQeCeURoY8i33x7Y92Jw9jnnRXT8aazBS92QYAp4iEVjaXPRRZeEHOnplGmn+m0yRXNloIAgZsB405NPmaav7efRRx6KmtXcEPRFb9+2TV/bz3HHn0A9e/bS14KjO6fZSSedoq/tB97kiwMEDDEL+tzr85ennjT9TJYtW0offnhgn2Ukxh43N9q0aUuXXuq/Xx2BcYTYIUIbQxobyhOsR2OisXnzJv3TfoLxtoTQNpY2p58RXMCB+qACMO2UU/W1/cDbFlZUuKAy8fTTzyjBrQ8CbVx91eUqyEW0gXXij9NPCz3YBPrcG0v3xs4XLIjcVR+0aPizzP2B/mjkGQN0FZzb4HiCxkUXX6p/OpC5c37WPwmxQIQ2hqzyM5wH3qrhDG+IN6tWrqTffluir+3nkCCiMaF/zl/aQMDg4BEOCPfnj/oRmcIBTdQYUtXQSQtevHCO8jf8KZKsXbNG/3QgCI0ZKhDa0aNH62sHsqaR8wULIiY1rIz94+m/BxxHCie7hl0M8KSFM5dwMGgp8xceFYFl6ldWhOgiQhsjYEUhxGJDhg4ddlAzWrKA+7n22qsOEhMM1D/iyMn6WmBKSor9ps2QoUP1T6EzdNgw/dOBNDbcJBRQUXrssSf1tf3Am/axMENcBgIhFhuCyok/RzCzwFLHMfyF9PR3vlBAfN7rr79RX9PAkJTnm+jfRoXsiccPHOONPsiGx4kkOOdSrkg+/9yzppdXXnmJfpk/Xz9C/BkxYqT+aT8VFRV+I3YJ0UGENkbs21ekfzqQtm21YBSJAkQTwzj8LfA83bJlM838YYYaczn5yEl+nSoQYxViaxYMT/FHLhfG4YLJD/xR3Mg5Q+X8Cy6k88+/UF/bzzPP/COq/WFFRQfnq7ZtIxPb1l/a7SuOXLpdfvkV1KtXb31N44UXnlOhSf2BflmM3a7PTTf9Kai8Fgqwou+//x7Ty1133k4nn3w8ffBBaOODI01uG//vkT9PdSE6iNDGiMoK/+HPsqJcSAQLxrIOGNDH7zJoYD8aO2YknXPOmfTss8/4LeQRwP/W2/bPSGOGRtMmK0v/FDqNFcKo0UcaTGDgr6n65j/dEFELuj7+7iMrO/Tp4erjL+3KIjhOGA5Mt99xp76mgXHI//f3v+lr+4Gj1F//8pS+poGuhUu4UpeozPpxpv4pvrTK8T+DUZWEZIwZIrRxxteM+knGjhtP/33vfUpLS9O3mKMxD+VIjEdtrB/K0iDIRiRAfzv6axv2PaJCcsXlfwh72jV/+Eu7SKQb8Jd2mAM1kmB8NIKM1AdOUaiY1L+P//z7tYOare+4466ITucXaUKJjBYNGn0HghgZIISHCG2MaGwS6HhEEoo0nTp1UoEOPv30i5AKl8aiPSEgerg0ZoEFijAVCnAiQlMoPJEbAueTO+64VV+LHP7yVVlpif4pPPzlzazM8FsZ6oPCHhG/6gPrFeNkDaHFdfzjHwfO04sALdNOPU1fiy6w7OFsZXZBnHIM+7r6mmv1I8SXkkbyQ3oU3gHBPyK0MaJNI32xe/bsiZgFEgkwJAaTZddfUlJSlOXQcLwsCkkEk5g3fwFdffW1IY931dLm4Np1JIbH7Ob09Ue7ML2Zm+KEE06km2++ldPnwNcLs+ogDm0kvT3btT+4YgMnl3DOgfyIBXmzIe39nC9cEF3slAbjkT/66AP65Zf56jogsvX7bVGhuZfFORYWGc5x2R8up6XLVpleFi76jf797zcSxqLds9v/O9Chw8HBLIToIEIbI2BB+ZsgHDP4uFzhB0+IFCj01m/YcsCyafM2+n7GLBXUv76YohB85p9P0+233xrWMBakTQ8/abOiidmNzLJixTL904H07t1H/xQdbrv9TjriiCP0tf1guj4EXIgUvXsf6EwE4FyGEIXhgOAU/pySGjovRYo77rz7oIoaJs2A2L/GlZP6oCJz6KET9TUhEP6G36ECjYAWQmwQoY0hQ4ccPFwF83IuWnSgJ2WigWm1EArx3vseoGf+dfD0d/97779q8vpQsbLVMNTPUB5MBbh9+3Z9LTQWLfQfySiUGXyCAUO2nnv+xYOG2aCf9sor/tiop3WwDBnsfwjUr7/+qn8KHljDCxb8oq8dSLTSDVPBIQpYfTA86pKLLzhgbC3E+K6779XXhEDgHcJIgYZgyI/00cYOEdoYcvjhB1s44N13IzNRdyyA88qpp52ur+0HDiyY0zQU4Jh0uJ/ZdsCHYQyRQCzcTz89eMo/jL30N7Yw0uA8zz3/0kGWGhx9brj+moh0GWBaQ380DFEYDIhn/MH7/n8faGapcLjl1ttUAJD6NBzOg3lZIcqCORqbCOKwRsoiITqI0MaQ4447wW9wis9YDPyFMUxU7maLwp+350MPPxhS0Hn0/SJt/PXxvvnWGyEPxXn77bfUnKUNwUxJDaf2ixYTJ046yNkHfPPN1xFx9sLMSQMHHiw8GFqyfLn/ZvNAIEoXJtFvCCIMDfHTKhMpUDFpbJo+gOFet952u74mBALN/2+//aa+th/k/YZ94kJ0EaGNIQhwf/wJJ+pr+4GQ/OmmG6Ieri9SoH/zYj+TgCMcIxx+ggVNWF27dqUTTzpZ37IfNH098cSB0YDMgBCITz7xmL52IJf+PrZjLyEemOAgWvgbS4rm39tvuyXoPIWK0l133+n3d40FqI8kV119rd+IVAAOdx06JO/kG7GktrZGxdv2N9YdFc1o+ygIByJCG2NuvPFPfq1aBIr4/aUXBTXWEoUpgrw/cP+99A5bb5FoijTLzTffclAzH/j7//015PGijaXNC88/Ry+9+IK+FhhEvLng/HP9FjIYdhHr2NKoSGDIj7+Ys5EAEakwpKQhmDghmHjL2O+6a6+mhQsO7t9FJfH8Cy7S16JHeno63XrrwQFPMITs6iasXWE/qGSeccapNG/eXH3LftBqdOed9+hrQqwQoY0x6Bu89Pd/0NcOBM2JU6ccoYY2YAaYxsA4Q0wrd+q0k+iM06ep+U9vvPG6mM6DiqELV111jb62H0zZ9uKLz+trwQEB/OPlV+hrB3LPPXfSn/50gwoD2RRIw5NPOsFvaEg0Pf65kTlqow3GYvqbfCASQJwwjtkfH3/8IZ115mkB5x9dvWoVnXvOmY2GDXzg/j9H5dr9ce55v6OxY8fpaxp33XVvo2PRBQ10P8Gr/cgjJjYaa/m22+5Q3Q1CbLHkFxQnziDOFgI8jVHjXPCrf89OAPd7OCz0ZEuldW6usooQnxezpyxctEDFHm4IBvF/+aX/eV39ccH559F33x24P5xrPvjwYAcif6DJ+9AJYw6aECCXr3fe/IXqb7DAgemMM06jX3/xX1CgsJ08ZSpNmjhJNSNCZAo4LTDN2vTp36rm68Z4+eXX6LTTQ5s+DtbhCccfo69pwEKdM7fxZ+gPNK3fcEPjgQwWL17mdw5dM9x771304gv+KzloKRjP+WPK1KNU0yzC8hWXFNOOHTvox5k/KOunMcv3j3+8gh5/4sDwh8Ewftzog0JQbti41W+LiAEmGHjyycdox/btam5dXENT/O2vT9ETDboKHn30Cbriyqv0NXP4eyfQCnLqtOCCYzhTUlTFsbFm8Mbwd/4+ffr6nbbQxRVuTFZSWFSohvD4m5e4PmeffS7969nnY+afIOxHhDZOIBgDXipEDIoUZ511Dj3/wkv6WmDCFVrw2muvqKE9DZutr732enrwz6FZjxi/ed65Z4fszOOPhx56NKxIPZESWnDLzTc1OvdqOEILobzh+mvp/fdhlUbmtYaH+fN+PKeDIRShDZZoCm2oIJbz/97/UI35NTuUJpLnrw/GwMMpz1/XjBB9pGoTJ2CNffjRp3TiiSfpW8IDzg133RVc34vdfnDcWluQLyLGPg4cOEhf289bb73RZPN3U8D7FGlz9NHH6ltCB022zz73Qtjh8PxZAVZraOMQH3v8CRo1arS+1oAwxjaiEIXFcuONN4VtteD3V119Db344ithiSzwJzJmhccskTpHY5NQhAJaZ77++sugfCcieX6A+WjffOtdeuDBh0Rk44gIbRxBjf71N95WQhCqF2BqaqpyIprxwyy/kaeawp/lhKbqYEAhfPc99+lr+0GTVjgz5LRu3Zreefc9+tvfnw55blVEEEK6nHPOefqW0Onc+eBr6NQptMnGYemgv7ZhZB6kZYcO4YXtg0AisMhHH3/WuJgHYOTI0WyJfUQPP/zYQWE3Q6FhqD+ISaQFBZWzhrQPIS3HjD1wgoNwycoK7j4jdX4M+frr3/6PFiz8TXkZC/FFmo4TBDT7ffH5Z/TVV1/SrFkz/XrMGsApBYUohoxM4yXUUGpwnoBDldHHitovLMlQvGOfeuoJ1XxnxNiFyL3x5jvqc7igT/vDD96nL774XHlZw1JoDFQ2ULBAXA85ZIS+NTKgb9UYvgSxfPW1/9Bxxx2v1kNh/vx5dMklF9b1t4fT3O4PWFIzZkynTz7+iKZ/P91vv74BfALQgoCmYtxTJC1OnP+aa66sa+HANIqYeSeSINLWscdMrYuCBKH55tsZQTtw4RofeugBNbYd3ruhgvwxbtw4euHFl5XjoNn0DOb8sFBbtWqtKqWteOnTuzcL9TgaN3Y8DRw0KOKtBkLoiNAmICggt23bShvWr1cOK5WVlWztONULBesOTbWRagbCzChLlixWnzGXajiWBsa8rlq9Sh0DjjeRsIYaAo/rdevW0lY+VylbzW6PWzlEobKBiEEYBhJNkFYYPjR48FA19jdcIBALF/6qCsyGnraRBHkKIgSnseLiYlV5gRhAYPv27atiGEfTSQaxl+HIhzSLVtALtKAsWPCruo9x48ar1h5BSAREaAVBEAQhikgfrSAIgiBEERFaQRAEQYgiIrSCIAiCEEVEaAVBEAQhiojQCoIgCEIUEaEVBEEQhCgiQisIgiAIUUSEVhAEQRCiiAitIAiCIEQREVpBEARBiCIitIIgCIIQRURoBUEQBCGKiNAKgiAIQhQRoRUEQRCEKCJCKwiCIAhRRIRWEARBEKKICK0gCIIgRBERWkEQBEGIIiK0giAIghBFRGgFQRAEIYqI0AqCIAhCFBGhFQRBEIQoIkIrCIIgCFFEhFYQBEEQoogIrSAIgiBEERFaQRAEQYgiIrSCIAiCEEVEaAVBEAQhiojQCoIgCEIUEaEVBEEQhCgiQisIgiAIUUSEVhAEQRCiiAitIAiCIEQNov8HpjXEDJ2dpzUAAAAASUVORK5CYII=;" vertex="1" parent="1">
          <mxGeometry x="588" y="50" width="94" height="91.62" as="geometry" />
        </mxCell>
        <mxCell id="B4nHwGPNu4P-VPpUnSVg-86" style="edgeStyle=orthogonalEdgeStyle;rounded=0;orthogonalLoop=1;jettySize=auto;html=1;entryX=0;entryY=0.5;entryDx=0;entryDy=0;endArrow=none;endFill=0;" edge="1" parent="1" source="B4nHwGPNu4P-VPpUnSVg-50" target="B4nHwGPNu4P-VPpUnSVg-57">
          <mxGeometry relative="1" as="geometry">
            <Array as="points">
              <mxPoint x="350" y="450" />
              <mxPoint x="350" y="525" />
            </Array>
          </mxGeometry>
        </mxCell>
        <mxCell id="B4nHwGPNu4P-VPpUnSVg-87" style="edgeStyle=orthogonalEdgeStyle;rounded=0;orthogonalLoop=1;jettySize=auto;html=1;entryX=0;entryY=0.5;entryDx=0;entryDy=0;endArrow=none;endFill=0;" edge="1" parent="1" source="B4nHwGPNu4P-VPpUnSVg-50" target="B4nHwGPNu4P-VPpUnSVg-58">
          <mxGeometry relative="1" as="geometry">
            <Array as="points">
              <mxPoint x="350" y="450" />
              <mxPoint x="350" y="575" />
            </Array>
          </mxGeometry>
        </mxCell>
        <mxCell id="B4nHwGPNu4P-VPpUnSVg-88" style="edgeStyle=orthogonalEdgeStyle;rounded=0;orthogonalLoop=1;jettySize=auto;html=1;entryX=0;entryY=0.5;entryDx=0;entryDy=0;endArrow=none;endFill=0;" edge="1" parent="1" source="B4nHwGPNu4P-VPpUnSVg-50" target="B4nHwGPNu4P-VPpUnSVg-59">
          <mxGeometry relative="1" as="geometry">
            <Array as="points">
              <mxPoint x="350" y="450" />
              <mxPoint x="350" y="625" />
            </Array>
          </mxGeometry>
        </mxCell>
        <mxCell id="B4nHwGPNu4P-VPpUnSVg-89" style="edgeStyle=orthogonalEdgeStyle;rounded=0;orthogonalLoop=1;jettySize=auto;html=1;entryX=0;entryY=0.5;entryDx=0;entryDy=0;endArrow=none;endFill=0;" edge="1" parent="1" source="B4nHwGPNu4P-VPpUnSVg-50" target="B4nHwGPNu4P-VPpUnSVg-60">
          <mxGeometry relative="1" as="geometry">
            <Array as="points">
              <mxPoint x="350" y="450" />
              <mxPoint x="350" y="675" />
            </Array>
          </mxGeometry>
        </mxCell>
        <mxCell id="B4nHwGPNu4P-VPpUnSVg-50" value="REGISTRO TRATAMIENTO" style="rounded=0;whiteSpace=wrap;html=1;fillColor=#f8cecc;strokeColor=none;fontColor=#b71515;" vertex="1" parent="1">
          <mxGeometry x="370" y="430" width="110" height="40" as="geometry" />
        </mxCell>
        <mxCell id="B4nHwGPNu4P-VPpUnSVg-90" style="edgeStyle=orthogonalEdgeStyle;rounded=0;orthogonalLoop=1;jettySize=auto;html=1;entryX=0;entryY=0.5;entryDx=0;entryDy=0;endArrow=none;endFill=0;" edge="1" parent="1" source="B4nHwGPNu4P-VPpUnSVg-52" target="B4nHwGPNu4P-VPpUnSVg-61">
          <mxGeometry relative="1" as="geometry">
            <Array as="points">
              <mxPoint x="560" y="450" />
              <mxPoint x="560" y="525" />
            </Array>
          </mxGeometry>
        </mxCell>
        <mxCell id="B4nHwGPNu4P-VPpUnSVg-52" value="TRATAMIENTOS EN CURSO" style="rounded=0;whiteSpace=wrap;html=1;fillColor=#f8cecc;strokeColor=none;fontColor=#b71515;" vertex="1" parent="1">
          <mxGeometry x="580" y="430" width="110" height="40" as="geometry" />
        </mxCell>
        <mxCell id="B4nHwGPNu4P-VPpUnSVg-91" style="edgeStyle=orthogonalEdgeStyle;rounded=0;orthogonalLoop=1;jettySize=auto;html=1;entryX=0;entryY=0.5;entryDx=0;entryDy=0;endArrow=none;endFill=0;" edge="1" parent="1" source="B4nHwGPNu4P-VPpUnSVg-55" target="B4nHwGPNu4P-VPpUnSVg-62">
          <mxGeometry relative="1" as="geometry">
            <Array as="points">
              <mxPoint x="770" y="450" />
              <mxPoint x="770" y="525" />
            </Array>
          </mxGeometry>
        </mxCell>
        <mxCell id="B4nHwGPNu4P-VPpUnSVg-92" style="edgeStyle=orthogonalEdgeStyle;rounded=0;orthogonalLoop=1;jettySize=auto;html=1;entryX=0;entryY=0.5;entryDx=0;entryDy=0;endArrow=none;endFill=0;" edge="1" parent="1" source="B4nHwGPNu4P-VPpUnSVg-55" target="B4nHwGPNu4P-VPpUnSVg-63">
          <mxGeometry relative="1" as="geometry">
            <Array as="points">
              <mxPoint x="770" y="450" />
              <mxPoint x="770" y="575" />
            </Array>
          </mxGeometry>
        </mxCell>
        <mxCell id="B4nHwGPNu4P-VPpUnSVg-55" value="TRATAMIENTOS FINALIZADOS" style="rounded=0;whiteSpace=wrap;html=1;fillColor=#f8cecc;strokeColor=none;fontColor=#b71515;" vertex="1" parent="1">
          <mxGeometry x="790" y="430" width="110" height="40" as="geometry" />
        </mxCell>
        <mxCell id="B4nHwGPNu4P-VPpUnSVg-56" value="Listado de Medicamentos" style="rounded=0;whiteSpace=wrap;html=1;labelBorderColor=none;strokeColor=#c7c7c7;" vertex="1" parent="1">
          <mxGeometry x="130" y="510" width="170" height="30" as="geometry" />
        </mxCell>
        <mxCell id="B4nHwGPNu4P-VPpUnSVg-57" value="Agregar tratamiento" style="rounded=0;whiteSpace=wrap;html=1;labelBorderColor=none;strokeColor=#c7c7c7;" vertex="1" parent="1">
          <mxGeometry x="370" y="510" width="150" height="30" as="geometry" />
        </mxCell>
        <mxCell id="B4nHwGPNu4P-VPpUnSVg-58" value="Modificar tratamiento" style="rounded=0;whiteSpace=wrap;html=1;labelBorderColor=none;strokeColor=#c7c7c7;" vertex="1" parent="1">
          <mxGeometry x="370" y="560" width="150" height="30" as="geometry" />
        </mxCell>
        <mxCell id="B4nHwGPNu4P-VPpUnSVg-59" value="Listado de tratamientos" style="rounded=0;whiteSpace=wrap;html=1;labelBorderColor=none;strokeColor=#c7c7c7;" vertex="1" parent="1">
          <mxGeometry x="370" y="610" width="150" height="30" as="geometry" />
        </mxCell>
        <mxCell id="B4nHwGPNu4P-VPpUnSVg-60" value="Finalizar tratamiento" style="rounded=0;whiteSpace=wrap;html=1;labelBorderColor=none;strokeColor=#c7c7c7;" vertex="1" parent="1">
          <mxGeometry x="370" y="660" width="150" height="30" as="geometry" />
        </mxCell>
        <mxCell id="B4nHwGPNu4P-VPpUnSVg-61" value="Listado de tratamientos con frecuencia horaria" style="rounded=0;whiteSpace=wrap;html=1;labelBorderColor=none;strokeColor=#c7c7c7;" vertex="1" parent="1">
          <mxGeometry x="580" y="510" width="150" height="30" as="geometry" />
        </mxCell>
        <mxCell id="B4nHwGPNu4P-VPpUnSVg-62" value="Listado de tratamientos finalizados" style="rounded=0;whiteSpace=wrap;html=1;labelBorderColor=none;strokeColor=#c7c7c7;" vertex="1" parent="1">
          <mxGeometry x="790" y="510" width="150" height="30" as="geometry" />
        </mxCell>
        <mxCell id="B4nHwGPNu4P-VPpUnSVg-63" value="Eliminar tratamiento" style="rounded=0;whiteSpace=wrap;html=1;labelBorderColor=none;strokeColor=#c7c7c7;" vertex="1" parent="1">
          <mxGeometry x="790" y="560" width="150" height="30" as="geometry" />
        </mxCell>
        <mxCell id="B4nHwGPNu4P-VPpUnSVg-98" style="edgeStyle=orthogonalEdgeStyle;rounded=0;orthogonalLoop=1;jettySize=auto;html=1;entryX=1;entryY=0.5;entryDx=0;entryDy=0;" edge="1" parent="1" source="B4nHwGPNu4P-VPpUnSVg-64" target="B4nHwGPNu4P-VPpUnSVg-36">
          <mxGeometry relative="1" as="geometry">
            <Array as="points">
              <mxPoint x="1140" y="450" />
              <mxPoint x="1140" y="232" />
            </Array>
          </mxGeometry>
        </mxCell>
        <mxCell id="B4nHwGPNu4P-VPpUnSVg-64" value="CIERRE SESION" style="rounded=0;whiteSpace=wrap;html=1;fillColor=#f8cecc;strokeColor=none;fontColor=#b71515;" vertex="1" parent="1">
          <mxGeometry x="1000" y="430" width="110" height="40" as="geometry" />
        </mxCell>
        <mxCell id="B4nHwGPNu4P-VPpUnSVg-70" value="Agregar medicamento" style="rounded=0;whiteSpace=wrap;html=1;labelBorderColor=none;strokeColor=#c7c7c7;" vertex="1" parent="1">
          <mxGeometry x="130" y="590" width="150" height="30" as="geometry" />
        </mxCell>
        <mxCell id="B4nHwGPNu4P-VPpUnSVg-71" value="Modificar medicamento" style="rounded=0;whiteSpace=wrap;html=1;labelBorderColor=none;strokeColor=#c7c7c7;" vertex="1" parent="1">
          <mxGeometry x="130" y="640" width="150" height="30" as="geometry" />
        </mxCell>
        <mxCell id="B4nHwGPNu4P-VPpUnSVg-72" value="Eliminar medicamento" style="rounded=0;whiteSpace=wrap;html=1;labelBorderColor=none;strokeColor=#c7c7c7;" vertex="1" parent="1">
          <mxGeometry x="130" y="690" width="150" height="30" as="geometry" />
        </mxCell>
        <mxCell id="B4nHwGPNu4P-VPpUnSVg-73" value="Buscar medicamento" style="rounded=0;whiteSpace=wrap;html=1;labelBorderColor=none;strokeColor=#c7c7c7;" vertex="1" parent="1">
          <mxGeometry x="130" y="740" width="150" height="30" as="geometry" />
        </mxCell>
        <mxCell id="B4nHwGPNu4P-VPpUnSVg-77" value="" style="endArrow=none;dashed=1;html=1;rounded=0;" edge="1" parent="1">
          <mxGeometry width="50" height="50" relative="1" as="geometry">
            <mxPoint x="310" y="814" as="sourcePoint" />
            <mxPoint x="310" y="564" as="targetPoint" />
          </mxGeometry>
        </mxCell>
        <mxCell id="B4nHwGPNu4P-VPpUnSVg-78" value="" style="endArrow=none;dashed=1;html=1;rounded=0;" edge="1" parent="1">
          <mxGeometry width="50" height="50" relative="1" as="geometry">
            <mxPoint x="310" y="564" as="sourcePoint" />
            <mxPoint x="10" y="564" as="targetPoint" />
          </mxGeometry>
        </mxCell>
        <mxCell id="B4nHwGPNu4P-VPpUnSVg-79" value="Funciones sÃ³lo disponibles para el Administrador" style="text;html=1;strokeColor=none;fillColor=none;align=center;verticalAlign=middle;whiteSpace=wrap;rounded=0;" vertex="1" parent="1">
          <mxGeometry x="10" y="790" width="270" height="30" as="geometry" />
        </mxCell>
        <mxCell id="B4nHwGPNu4P-VPpUnSVg-110" value="" style="edgeStyle=orthogonalEdgeStyle;rounded=0;orthogonalLoop=1;jettySize=auto;html=1;" edge="1" parent="1" source="B4nHwGPNu4P-VPpUnSVg-101" target="B4nHwGPNu4P-VPpUnSVg-52">
          <mxGeometry relative="1" as="geometry" />
        </mxCell>
        <mxCell id="B4nHwGPNu4P-VPpUnSVg-111" style="edgeStyle=orthogonalEdgeStyle;rounded=0;orthogonalLoop=1;jettySize=auto;html=1;entryX=0.5;entryY=0;entryDx=0;entryDy=0;" edge="1" parent="1" source="B4nHwGPNu4P-VPpUnSVg-101" target="B4nHwGPNu4P-VPpUnSVg-40">
          <mxGeometry relative="1" as="geometry" />
        </mxCell>
        <mxCell id="B4nHwGPNu4P-VPpUnSVg-112" style="edgeStyle=orthogonalEdgeStyle;rounded=0;orthogonalLoop=1;jettySize=auto;html=1;entryX=0.5;entryY=0;entryDx=0;entryDy=0;" edge="1" parent="1" source="B4nHwGPNu4P-VPpUnSVg-101" target="B4nHwGPNu4P-VPpUnSVg-64">
          <mxGeometry relative="1" as="geometry" />
        </mxCell>
        <mxCell id="B4nHwGPNu4P-VPpUnSVg-113" style="edgeStyle=orthogonalEdgeStyle;rounded=0;orthogonalLoop=1;jettySize=auto;html=1;" edge="1" parent="1" source="B4nHwGPNu4P-VPpUnSVg-101" target="B4nHwGPNu4P-VPpUnSVg-50">
          <mxGeometry relative="1" as="geometry" />
        </mxCell>
        <mxCell id="B4nHwGPNu4P-VPpUnSVg-114" style="edgeStyle=orthogonalEdgeStyle;rounded=0;orthogonalLoop=1;jettySize=auto;html=1;entryX=0.5;entryY=0;entryDx=0;entryDy=0;" edge="1" parent="1" source="B4nHwGPNu4P-VPpUnSVg-101" target="B4nHwGPNu4P-VPpUnSVg-55">
          <mxGeometry relative="1" as="geometry" />
        </mxCell>
        <mxCell id="B4nHwGPNu4P-VPpUnSVg-101" value="HOME CRONOMED" style="whiteSpace=wrap;html=1;fillColor=#f8cecc;strokeColor=none;fontColor=#b71515;rounded=0;" vertex="1" parent="1">
          <mxGeometry x="590" y="320" width="90" height="40" as="geometry" />
        </mxCell>
      </root>
    </mxGraphModel>
  </diagram>
</mxfile>
